<mxfile host="65bd71144e">
    <diagram id="C5RBs43oDa-KdzZeNtuy" name="Page-1">
        <mxGraphModel dx="1202" dy="1762" grid="1" gridSize="10" guides="1" tooltips="1" connect="1" arrows="1" fold="1" page="1" pageScale="1" pageWidth="827" pageHeight="1169" math="0" shadow="0">
            <root>
                <mxCell id="WIyWlLk6GJQsqaUBKTNV-0"/>
                <mxCell id="WIyWlLk6GJQsqaUBKTNV-1" parent="WIyWlLk6GJQsqaUBKTNV-0"/>
                <mxCell id="hW5n2ouBTmK9XzmkuQqM-54" value="" style="endArrow=none;dashed=1;html=1;rounded=0;startArrow=none;" parent="WIyWlLk6GJQsqaUBKTNV-1" edge="1">
                    <mxGeometry width="50" height="50" relative="1" as="geometry">
                        <mxPoint x="440" y="-190" as="sourcePoint"/>
                        <mxPoint x="440" y="-330" as="targetPoint"/>
                    </mxGeometry>
                </mxCell>
                <mxCell id="hW5n2ouBTmK9XzmkuQqM-55" value="" style="endArrow=none;dashed=1;html=1;rounded=0;" parent="WIyWlLk6GJQsqaUBKTNV-1" edge="1">
                    <mxGeometry width="50" height="50" relative="1" as="geometry">
                        <mxPoint x="160" y="-280" as="sourcePoint"/>
                        <mxPoint x="720" y="-280" as="targetPoint"/>
                    </mxGeometry>
                </mxCell>
                <mxCell id="hW5n2ouBTmK9XzmkuQqM-56" value="Gaz system" style="text;html=1;strokeColor=none;fillColor=none;align=center;verticalAlign=middle;whiteSpace=wrap;rounded=0;" parent="WIyWlLk6GJQsqaUBKTNV-1" vertex="1">
                    <mxGeometry x="250" y="-340" width="110" height="40" as="geometry"/>
                </mxCell>
                <mxCell id="hW5n2ouBTmK9XzmkuQqM-57" value="Electric system" style="text;html=1;strokeColor=none;fillColor=none;align=center;verticalAlign=middle;whiteSpace=wrap;rounded=0;" parent="WIyWlLk6GJQsqaUBKTNV-1" vertex="1">
                    <mxGeometry x="515" y="-340" width="110" height="40" as="geometry"/>
                </mxCell>
                <mxCell id="hW5n2ouBTmK9XzmkuQqM-58" value="G" style="ellipse;whiteSpace=wrap;html=1;aspect=fixed;" parent="WIyWlLk6GJQsqaUBKTNV-1" vertex="1">
                    <mxGeometry x="200" y="-210" width="80" height="80" as="geometry"/>
                </mxCell>
                <mxCell id="hW5n2ouBTmK9XzmkuQqM-59" value="E1" style="ellipse;whiteSpace=wrap;html=1;aspect=fixed;" parent="WIyWlLk6GJQsqaUBKTNV-1" vertex="1">
                    <mxGeometry x="570" y="-260" width="80" height="80" as="geometry"/>
                </mxCell>
                <mxCell id="hW5n2ouBTmK9XzmkuQqM-60" value="" style="endArrow=classic;html=1;rounded=0;entryX=0;entryY=1;entryDx=0;entryDy=0;exitX=1;exitY=0.5;exitDx=0;exitDy=0;" parent="WIyWlLk6GJQsqaUBKTNV-1" source="hW5n2ouBTmK9XzmkuQqM-64" target="hW5n2ouBTmK9XzmkuQqM-58" edge="1">
                    <mxGeometry width="50" height="50" relative="1" as="geometry">
                        <mxPoint x="230" y="-90" as="sourcePoint"/>
                        <mxPoint x="440" y="-90" as="targetPoint"/>
                    </mxGeometry>
                </mxCell>
                <mxCell id="hW5n2ouBTmK9XzmkuQqM-61" value="" style="endArrow=classic;html=1;rounded=0;exitX=0;exitY=0;exitDx=0;exitDy=0;entryX=1;entryY=0.5;entryDx=0;entryDy=0;" parent="WIyWlLk6GJQsqaUBKTNV-1" source="hW5n2ouBTmK9XzmkuQqM-58" target="hW5n2ouBTmK9XzmkuQqM-67" edge="1">
                    <mxGeometry width="50" height="50" relative="1" as="geometry">
                        <mxPoint x="240" y="-80" as="sourcePoint"/>
                        <mxPoint x="210" y="-230" as="targetPoint"/>
                    </mxGeometry>
                </mxCell>
                <mxCell id="hW5n2ouBTmK9XzmkuQqM-63" value="" style="endArrow=classic;html=1;rounded=0;entryX=1;entryY=0.5;entryDx=0;entryDy=0;exitX=0;exitY=0.5;exitDx=0;exitDy=0;" parent="WIyWlLk6GJQsqaUBKTNV-1" source="hW5n2ouBTmK9XzmkuQqM-65" target="50" edge="1">
                    <mxGeometry width="50" height="50" relative="1" as="geometry">
                        <mxPoint x="650" y="-90" as="sourcePoint"/>
                        <mxPoint x="600" y="-110" as="targetPoint"/>
                    </mxGeometry>
                </mxCell>
                <mxCell id="hW5n2ouBTmK9XzmkuQqM-64" value="Gaz production" style="rounded=1;whiteSpace=wrap;html=1;" parent="WIyWlLk6GJQsqaUBKTNV-1" vertex="1">
                    <mxGeometry x="70" y="-110" width="90" height="30" as="geometry"/>
                </mxCell>
                <mxCell id="hW5n2ouBTmK9XzmkuQqM-65" value="Elec production" style="rounded=1;whiteSpace=wrap;html=1;" parent="WIyWlLk6GJQsqaUBKTNV-1" vertex="1">
                    <mxGeometry x="710" y="-85" width="90" height="30" as="geometry"/>
                </mxCell>
                <mxCell id="hW5n2ouBTmK9XzmkuQqM-66" value="Elec demand" style="rounded=1;whiteSpace=wrap;html=1;" parent="WIyWlLk6GJQsqaUBKTNV-1" vertex="1">
                    <mxGeometry x="699" y="-235" width="90" height="30" as="geometry"/>
                </mxCell>
                <mxCell id="hW5n2ouBTmK9XzmkuQqM-67" value="Gaz demand" style="rounded=1;whiteSpace=wrap;html=1;" parent="WIyWlLk6GJQsqaUBKTNV-1" vertex="1">
                    <mxGeometry x="70" y="-260" width="90" height="30" as="geometry"/>
                </mxCell>
                <mxCell id="hW5n2ouBTmK9XzmkuQqM-78" value="" style="endArrow=none;dashed=1;html=1;rounded=0;" parent="WIyWlLk6GJQsqaUBKTNV-1" edge="1">
                    <mxGeometry width="50" height="50" relative="1" as="geometry">
                        <mxPoint x="10" as="sourcePoint"/>
                        <mxPoint x="800" as="targetPoint"/>
                    </mxGeometry>
                </mxCell>
                <mxCell id="hW5n2ouBTmK9XzmkuQqM-82" value="" style="endArrow=none;dashed=1;html=1;rounded=0;" parent="WIyWlLk6GJQsqaUBKTNV-1" edge="1">
                    <mxGeometry width="50" height="50" relative="1" as="geometry">
                        <mxPoint x="54" y="1410" as="sourcePoint"/>
                        <mxPoint x="699" y="1410" as="targetPoint"/>
                    </mxGeometry>
                </mxCell>
                <mxCell id="0" value="" style="group" parent="WIyWlLk6GJQsqaUBKTNV-1" vertex="1" connectable="0">
                    <mxGeometry x="890" y="-584" width="840" height="594" as="geometry"/>
                </mxCell>
                <mxCell id="150" value="RepartitionKey : Model" style="swimlane;fontStyle=0;childLayout=stackLayout;horizontal=1;startSize=30;horizontalStack=0;resizeParent=1;resizeParentMax=0;resizeLast=0;collapsible=1;marginBottom=0;whiteSpace=wrap;html=1;fontColor=#000000;strokeColor=default;fillColor=#CCFFCC;" parent="0" vertex="1">
                    <mxGeometry x="450" y="104" width="200" height="120" as="geometry"/>
                </mxCell>
                <mxCell id="152" value="alpha : Parameter" style="text;strokeColor=none;fillColor=none;align=left;verticalAlign=middle;spacingLeft=4;spacingRight=4;overflow=hidden;points=[[0,0.5],[1,0.5]];portConstraint=eastwest;rotatable=0;whiteSpace=wrap;html=1;" parent="150" vertex="1">
                    <mxGeometry y="30" width="200" height="30" as="geometry"/>
                </mxCell>
                <mxCell id="154" value="" style="endArrow=none;dashed=1;html=1;rounded=0;exitX=0;exitY=0.5;exitDx=0;exitDy=0;entryX=1;entryY=0.5;entryDx=0;entryDy=0;" parent="150" edge="1">
                    <mxGeometry width="50" height="50" relative="1" as="geometry">
                        <mxPoint y="60" as="sourcePoint"/>
                        <mxPoint x="200" y="60" as="targetPoint"/>
                    </mxGeometry>
                </mxCell>
                <mxCell id="155" value="flow_k : Flow" style="text;strokeColor=none;fillColor=none;align=left;verticalAlign=middle;spacingLeft=4;spacingRight=4;overflow=hidden;points=[[0,0.5],[1,0.5]];portConstraint=eastwest;rotatable=0;whiteSpace=wrap;html=1;" parent="150" vertex="1">
                    <mxGeometry y="60" width="200" height="30" as="geometry"/>
                </mxCell>
                <mxCell id="158" value="flow_k.sum(alpha) = 0" style="text;strokeColor=none;fillColor=none;align=left;verticalAlign=middle;spacingLeft=4;spacingRight=4;overflow=hidden;points=[[0,0.5],[1,0.5]];portConstraint=eastwest;rotatable=0;whiteSpace=wrap;html=1;" parent="150" vertex="1">
                    <mxGeometry y="90" width="200" height="30" as="geometry"/>
                </mxCell>
                <mxCell id="192" value="Converter2Input : Model" style="swimlane;fontStyle=0;childLayout=stackLayout;horizontal=1;startSize=30;horizontalStack=0;resizeParent=1;resizeParentMax=0;resizeLast=0;collapsible=1;marginBottom=0;whiteSpace=wrap;html=1;fontColor=#000000;fillColor=#CCFFCC;" parent="0" vertex="1">
                    <mxGeometry x="10" y="184" width="240" height="390" as="geometry"/>
                </mxCell>
                <mxCell id="201" value="energy1 : Variable" style="text;strokeColor=none;fillColor=none;align=left;verticalAlign=middle;spacingLeft=4;spacingRight=4;overflow=hidden;points=[[0,0.5],[1,0.5]];portConstraint=eastwest;rotatable=0;whiteSpace=wrap;html=1;" parent="192" vertex="1">
                    <mxGeometry y="30" width="240" height="30" as="geometry"/>
                </mxCell>
                <mxCell id="193" value="energy2 : Variable" style="text;strokeColor=none;fillColor=none;align=left;verticalAlign=middle;spacingLeft=4;spacingRight=4;overflow=hidden;points=[[0,0.5],[1,0.5]];portConstraint=eastwest;rotatable=0;whiteSpace=wrap;html=1;" parent="192" vertex="1">
                    <mxGeometry y="60" width="240" height="30" as="geometry"/>
                </mxCell>
                <mxCell id="194" value="alpha : Parameter" style="text;strokeColor=none;fillColor=none;align=left;verticalAlign=middle;spacingLeft=4;spacingRight=4;overflow=hidden;points=[[0,0.5],[1,0.5]];portConstraint=eastwest;rotatable=0;whiteSpace=wrap;html=1;" parent="192" vertex="1">
                    <mxGeometry y="90" width="240" height="30" as="geometry"/>
                </mxCell>
                <mxCell id="202" value="p_max : Parameter" style="text;strokeColor=none;fillColor=none;align=left;verticalAlign=middle;spacingLeft=4;spacingRight=4;overflow=hidden;points=[[0,0.5],[1,0.5]];portConstraint=eastwest;rotatable=0;whiteSpace=wrap;html=1;" parent="192" vertex="1">
                    <mxGeometry y="120" width="240" height="30" as="geometry"/>
                </mxCell>
                <mxCell id="195" value="&lt;span style=&quot;color: rgba(0, 0, 0, 0); font-family: monospace; font-size: 0px;&quot;&gt;%3CmxGraphModel%3E%3Croot%3E%3CmxCell%20id%3D%220%22%2F%3E%3CmxCell%20id%3D%221%22%20parent%3D%220%22%2F%3E%3CmxCell%20id%3D%222%22%20value%3D%22alpha%20%3A%20Parameter%22%20style%3D%22text%3BstrokeColor%3Dnone%3BfillColor%3Dnone%3Balign%3Dleft%3BverticalAlign%3Dmiddle%3BspacingLeft%3D4%3BspacingRight%3D4%3Boverflow%3Dhidden%3Bpoints%3D%5B%5B0%2C0.5%5D%2C%5B1%2C0.5%5D%5D%3BportConstraint%3Deastwest%3Brotatable%3D0%3BwhiteSpace%3Dwrap%3Bhtml%3D1%3B%22%20vertex%3D%221%22%20parent%3D%221%22%3E%3CmxGeometry%20x%3D%22960%22%20y%3D%22-180%22%20width%3D%22200%22%20height%3D%2230%22%20as%3D%22geometry%22%2F%3E%3C%2FmxCell%3E%3C%2Froot%3E%3C%2FmxGraphModel%3E&lt;/span&gt;energy1 + energy2 &amp;gt;= 0" style="text;strokeColor=none;fillColor=none;align=left;verticalAlign=middle;spacingLeft=4;spacingRight=4;overflow=hidden;points=[[0,0.5],[1,0.5]];portConstraint=eastwest;rotatable=0;whiteSpace=wrap;html=1;" parent="192" vertex="1">
                    <mxGeometry y="150" width="240" height="30" as="geometry"/>
                </mxCell>
                <mxCell id="203" value="&lt;span style=&quot;color: rgba(0, 0, 0, 0); font-family: monospace; font-size: 0px;&quot;&gt;%3CmxGraphModel%3E%3Croot%3E%3CmxCell%20id%3D%220%22%2F%3E%3CmxCell%20id%3D%221%22%20parent%3D%220%22%2F%3E%3CmxCell%20id%3D%222%22%20value%3D%22alpha%20%3A%20Parameter%22%20style%3D%22text%3BstrokeColor%3Dnone%3BfillColor%3Dnone%3Balign%3Dleft%3BverticalAlign%3Dmiddle%3BspacingLeft%3D4%3BspacingRight%3D4%3Boverflow%3Dhidden%3Bpoints%3D%5B%5B0%2C0.5%5D%2C%5B1%2C0.5%5D%5D%3BportConstraint%3Deastwest%3Brotatable%3D0%3BwhiteSpace%3Dwrap%3Bhtml%3D1%3B%22%20vertex%3D%221%22%20parent%3D%221%22%3E%3CmxGeometry%20x%3D%22960%22%20y%3D%22-180%22%20width%3D%22200%22%20height%3D%2230%22%20as%3D%22geometry%22%2F%3E%3C%2FmxCell%3E%3C%2Froot%3E%3C%2FmxGraphModel%3E&lt;/span&gt;energy1 + energy2 &amp;lt;= p_max" style="text;strokeColor=none;fillColor=none;align=left;verticalAlign=middle;spacingLeft=4;spacingRight=4;overflow=hidden;points=[[0,0.5],[1,0.5]];portConstraint=eastwest;rotatable=0;whiteSpace=wrap;html=1;" parent="192" vertex="1">
                    <mxGeometry y="180" width="240" height="30" as="geometry"/>
                </mxCell>
                <mxCell id="196" value="" style="endArrow=none;dashed=1;html=1;rounded=0;exitX=0;exitY=0.5;exitDx=0;exitDy=0;" parent="192" edge="1">
                    <mxGeometry width="50" height="50" relative="1" as="geometry">
                        <mxPoint y="210" as="sourcePoint"/>
                        <mxPoint x="240" y="210" as="targetPoint"/>
                    </mxGeometry>
                </mxCell>
                <mxCell id="197" value="flow_in_1 : Flow" style="text;strokeColor=none;fillColor=none;align=left;verticalAlign=middle;spacingLeft=4;spacingRight=4;overflow=hidden;points=[[0,0.5],[1,0.5]];portConstraint=eastwest;rotatable=0;whiteSpace=wrap;html=1;" parent="192" vertex="1">
                    <mxGeometry y="210" width="240" height="30" as="geometry"/>
                </mxCell>
                <mxCell id="198" value="flow_in_2 : Flow" style="text;strokeColor=none;fillColor=none;align=left;verticalAlign=middle;spacingLeft=4;spacingRight=4;overflow=hidden;points=[[0,0.5],[1,0.5]];portConstraint=eastwest;rotatable=0;whiteSpace=wrap;html=1;" parent="192" vertex="1">
                    <mxGeometry y="240" width="240" height="30" as="geometry"/>
                </mxCell>
                <mxCell id="204" value="flow_out : Flow" style="text;strokeColor=none;fillColor=none;align=left;verticalAlign=middle;spacingLeft=4;spacingRight=4;overflow=hidden;points=[[0,0.5],[1,0.5]];portConstraint=eastwest;rotatable=0;whiteSpace=wrap;html=1;" parent="192" vertex="1">
                    <mxGeometry y="270" width="240" height="30" as="geometry"/>
                </mxCell>
                <mxCell id="199" value="flow_in_1.f = -energy1" style="text;strokeColor=none;fillColor=none;align=left;verticalAlign=middle;spacingLeft=4;spacingRight=4;overflow=hidden;points=[[0,0.5],[1,0.5]];portConstraint=eastwest;rotatable=0;whiteSpace=wrap;html=1;" parent="192" vertex="1">
                    <mxGeometry y="300" width="240" height="30" as="geometry"/>
                </mxCell>
                <mxCell id="205" value="flow_in_2.f = -energy2" style="text;strokeColor=none;fillColor=none;align=left;verticalAlign=middle;spacingLeft=4;spacingRight=4;overflow=hidden;points=[[0,0.5],[1,0.5]];portConstraint=eastwest;rotatable=0;whiteSpace=wrap;html=1;" parent="192" vertex="1">
                    <mxGeometry y="330" width="240" height="30" as="geometry"/>
                </mxCell>
                <mxCell id="200" value="flow_out.f = alpha x (energy1+energy2)" style="text;strokeColor=none;fillColor=none;align=left;verticalAlign=middle;spacingLeft=4;spacingRight=4;overflow=hidden;points=[[0,0.5],[1,0.5]];portConstraint=eastwest;rotatable=0;whiteSpace=wrap;html=1;" parent="192" vertex="1">
                    <mxGeometry y="360" width="240" height="30" as="geometry"/>
                </mxCell>
                <mxCell id="397" value="Converter : Model" style="swimlane;fontStyle=0;childLayout=stackLayout;horizontal=1;startSize=30;horizontalStack=0;resizeParent=1;resizeParentMax=0;resizeLast=0;collapsible=1;marginBottom=0;whiteSpace=wrap;html=1;fillColor=#CCFFCC;fontColor=#000000;" parent="0" vertex="1">
                    <mxGeometry x="290" y="234" width="200" height="210" as="geometry"/>
                </mxCell>
                <mxCell id="398" value="p : Variable" style="text;strokeColor=none;fillColor=none;align=left;verticalAlign=middle;spacingLeft=4;spacingRight=4;overflow=hidden;points=[[0,0.5],[1,0.5]];portConstraint=eastwest;rotatable=0;whiteSpace=wrap;html=1;" parent="397" vertex="1">
                    <mxGeometry y="30" width="200" height="30" as="geometry"/>
                </mxCell>
                <mxCell id="399" value="alpha : Parameter" style="text;strokeColor=none;fillColor=none;align=left;verticalAlign=middle;spacingLeft=4;spacingRight=4;overflow=hidden;points=[[0,0.5],[1,0.5]];portConstraint=eastwest;rotatable=0;whiteSpace=wrap;html=1;" parent="397" vertex="1">
                    <mxGeometry y="60" width="200" height="30" as="geometry"/>
                </mxCell>
                <mxCell id="400" value="p &amp;gt;= 0" style="text;strokeColor=none;fillColor=none;align=left;verticalAlign=middle;spacingLeft=4;spacingRight=4;overflow=hidden;points=[[0,0.5],[1,0.5]];portConstraint=eastwest;rotatable=0;whiteSpace=wrap;html=1;" parent="397" vertex="1">
                    <mxGeometry y="90" width="200" height="30" as="geometry"/>
                </mxCell>
                <mxCell id="401" value="" style="endArrow=none;dashed=1;html=1;rounded=0;exitX=0;exitY=0.5;exitDx=0;exitDy=0;entryX=1;entryY=0.5;entryDx=0;entryDy=0;" parent="397" edge="1">
                    <mxGeometry width="50" height="50" relative="1" as="geometry">
                        <mxPoint y="119" as="sourcePoint"/>
                        <mxPoint x="200" y="119" as="targetPoint"/>
                    </mxGeometry>
                </mxCell>
                <mxCell id="402" value="flot_in, flot_out : Flow" style="text;strokeColor=none;fillColor=none;align=left;verticalAlign=middle;spacingLeft=4;spacingRight=4;overflow=hidden;points=[[0,0.5],[1,0.5]];portConstraint=eastwest;rotatable=0;whiteSpace=wrap;html=1;" parent="397" vertex="1">
                    <mxGeometry y="120" width="200" height="30" as="geometry"/>
                </mxCell>
                <mxCell id="403" value="flot_in.f = -p" style="text;strokeColor=none;fillColor=none;align=left;verticalAlign=middle;spacingLeft=4;spacingRight=4;overflow=hidden;points=[[0,0.5],[1,0.5]];portConstraint=eastwest;rotatable=0;whiteSpace=wrap;html=1;" parent="397" vertex="1">
                    <mxGeometry y="150" width="200" height="30" as="geometry"/>
                </mxCell>
                <mxCell id="404" value="flot_out.f = alpha x p" style="text;strokeColor=none;fillColor=none;align=left;verticalAlign=middle;spacingLeft=4;spacingRight=4;overflow=hidden;points=[[0,0.5],[1,0.5]];portConstraint=eastwest;rotatable=0;whiteSpace=wrap;html=1;" parent="397" vertex="1">
                    <mxGeometry y="180" width="200" height="30" as="geometry"/>
                </mxCell>
                <mxCell id="215" value="" style="endArrow=none;dashed=1;html=1;rounded=0;exitX=0;exitY=0.5;exitDx=0;exitDy=0;entryX=1;entryY=0.5;entryDx=0;entryDy=0;" parent="0" edge="1">
                    <mxGeometry width="50" height="50" relative="1" as="geometry">
                        <mxPoint x="460" y="14" as="sourcePoint"/>
                        <mxPoint x="660" y="14" as="targetPoint"/>
                    </mxGeometry>
                </mxCell>
                <mxCell id="559" value="Node : Model" style="swimlane;fontStyle=0;childLayout=stackLayout;horizontal=1;startSize=30;horizontalStack=0;resizeParent=1;resizeParentMax=0;resizeLast=0;collapsible=1;marginBottom=0;whiteSpace=wrap;html=1;fillColor=#CCFFCC;fontColor=#000000;" parent="0" vertex="1">
                    <mxGeometry x="530" y="304" width="290" height="270" as="geometry"/>
                </mxCell>
                <mxCell id="666" value="c_spill, c_ens : Parameter" style="text;strokeColor=none;fillColor=none;align=left;verticalAlign=middle;spacingLeft=4;spacingRight=4;overflow=hidden;points=[[0,0.5],[1,0.5]];portConstraint=eastwest;rotatable=0;whiteSpace=wrap;html=1;" parent="559" vertex="1">
                    <mxGeometry y="30" width="290" height="30" as="geometry"/>
                </mxCell>
                <mxCell id="560" value="spillage, ens, consumption_e : Variable" style="text;strokeColor=none;fillColor=none;align=left;verticalAlign=middle;spacingLeft=4;spacingRight=4;overflow=hidden;points=[[0,0.5],[1,0.5]];portConstraint=eastwest;rotatable=0;whiteSpace=wrap;html=1;" parent="559" vertex="1">
                    <mxGeometry y="60" width="290" height="30" as="geometry"/>
                </mxCell>
                <mxCell id="671" value="spillage, ens &amp;gt;= 0" style="text;strokeColor=none;fillColor=none;align=left;verticalAlign=middle;spacingLeft=4;spacingRight=4;overflow=hidden;points=[[0,0.5],[1,0.5]];portConstraint=eastwest;rotatable=0;whiteSpace=wrap;html=1;" vertex="1" parent="559">
                    <mxGeometry y="90" width="290" height="30" as="geometry"/>
                </mxCell>
                <mxCell id="659" value="consumption_e &amp;gt;= 0" style="text;strokeColor=none;fillColor=none;align=left;verticalAlign=middle;spacingLeft=4;spacingRight=4;overflow=hidden;points=[[0,0.5],[1,0.5]];portConstraint=eastwest;rotatable=0;whiteSpace=wrap;html=1;" parent="559" vertex="1">
                    <mxGeometry y="120" width="290" height="30" as="geometry"/>
                </mxCell>
                <mxCell id="667" value="c_spill*spillage + c_ens*ens : ObjectiveContribution" style="text;strokeColor=none;fillColor=none;align=left;verticalAlign=middle;spacingLeft=4;spacingRight=4;overflow=hidden;points=[[0,0.5],[1,0.5]];portConstraint=eastwest;rotatable=0;whiteSpace=wrap;html=1;" parent="559" vertex="1">
                    <mxGeometry y="150" width="290" height="30" as="geometry"/>
                </mxCell>
                <mxCell id="561" value="flow_n, flow_e : Flow" style="text;strokeColor=none;fillColor=none;align=left;verticalAlign=middle;spacingLeft=4;spacingRight=4;overflow=hidden;points=[[0,0.5],[1,0.5]];portConstraint=eastwest;rotatable=0;whiteSpace=wrap;html=1;" parent="559" vertex="1">
                    <mxGeometry y="180" width="290" height="30" as="geometry"/>
                </mxCell>
                <mxCell id="562" value="flow_n.f.sum() - consumption_e = spillage - ens" style="text;strokeColor=none;fillColor=none;align=left;verticalAlign=middle;spacingLeft=4;spacingRight=4;overflow=hidden;points=[[0,0.5],[1,0.5]];portConstraint=eastwest;rotatable=0;whiteSpace=wrap;html=1;" parent="559" vertex="1">
                    <mxGeometry y="210" width="290" height="30" as="geometry"/>
                </mxCell>
                <mxCell id="652" value="flow_e.f. = - consumption_e" style="text;strokeColor=none;fillColor=none;align=left;verticalAlign=middle;spacingLeft=4;spacingRight=4;overflow=hidden;points=[[0,0.5],[1,0.5]];portConstraint=eastwest;rotatable=0;whiteSpace=wrap;html=1;" parent="559" vertex="1">
                    <mxGeometry y="240" width="290" height="30" as="geometry"/>
                </mxCell>
                <mxCell id="1" value="" style="group;fillColor=none;" parent="WIyWlLk6GJQsqaUBKTNV-1" vertex="1" connectable="0">
                    <mxGeometry x="109" y="80" width="680" height="690" as="geometry"/>
                </mxCell>
                <mxCell id="hW5n2ouBTmK9XzmkuQqM-36" value="File &quot;network.txt&quot;" style="swimlane;fontStyle=0;childLayout=stackLayout;horizontal=1;startSize=30;horizontalStack=0;resizeParent=1;resizeParentMax=0;resizeLast=0;collapsible=1;marginBottom=0;whiteSpace=wrap;html=1;fillColor=#ccccff;" parent="1" vertex="1">
                    <mxGeometry x="220" y="80" width="320" height="240" as="geometry"/>
                </mxCell>
                <mxCell id="390" value="g, e_1, e_2 : Node" style="text;strokeColor=none;fillColor=none;align=left;verticalAlign=middle;spacingLeft=4;spacingRight=4;overflow=hidden;points=[[0,0.5],[1,0.5]];portConstraint=eastwest;rotatable=0;whiteSpace=wrap;html=1;" parent="hW5n2ouBTmK9XzmkuQqM-36" vertex="1">
                    <mxGeometry y="30" width="320" height="30" as="geometry"/>
                </mxCell>
                <mxCell id="391" value="demand_e, demand_g : Demand" style="text;strokeColor=none;fillColor=none;align=left;verticalAlign=middle;spacingLeft=4;spacingRight=4;overflow=hidden;points=[[0,0.5],[1,0.5]];portConstraint=eastwest;rotatable=0;whiteSpace=wrap;html=1;" parent="hW5n2ouBTmK9XzmkuQqM-36" vertex="1">
                    <mxGeometry y="60" width="320" height="30" as="geometry"/>
                </mxCell>
                <mxCell id="392" value="prod_e, prod_g : Production" style="text;strokeColor=none;fillColor=none;align=left;verticalAlign=middle;spacingLeft=4;spacingRight=4;overflow=hidden;points=[[0,0.5],[1,0.5]];portConstraint=eastwest;rotatable=0;whiteSpace=wrap;html=1;" parent="hW5n2ouBTmK9XzmkuQqM-36" vertex="1">
                    <mxGeometry y="90" width="320" height="30" as="geometry"/>
                </mxCell>
                <mxCell id="394" value="e_1.flow_n demand_e.flow_d" style="text;strokeColor=none;fillColor=none;align=left;verticalAlign=middle;spacingLeft=4;spacingRight=4;overflow=hidden;points=[[0,0.5],[1,0.5]];portConstraint=eastwest;rotatable=0;whiteSpace=wrap;html=1;" parent="hW5n2ouBTmK9XzmkuQqM-36" vertex="1">
                    <mxGeometry y="120" width="320" height="30" as="geometry"/>
                </mxCell>
                <mxCell id="393" value="e_2.flow_n prod_e.flow_p" style="text;strokeColor=none;fillColor=none;align=left;verticalAlign=middle;spacingLeft=4;spacingRight=4;overflow=hidden;points=[[0,0.5],[1,0.5]];portConstraint=eastwest;rotatable=0;whiteSpace=wrap;html=1;" parent="hW5n2ouBTmK9XzmkuQqM-36" vertex="1">
                    <mxGeometry y="150" width="320" height="30" as="geometry"/>
                </mxCell>
                <mxCell id="395" value="g.flow_n prod_g.flow_p" style="text;strokeColor=none;fillColor=none;align=left;verticalAlign=middle;spacingLeft=4;spacingRight=4;overflow=hidden;points=[[0,0.5],[1,0.5]];portConstraint=eastwest;rotatable=0;whiteSpace=wrap;html=1;" parent="hW5n2ouBTmK9XzmkuQqM-36" vertex="1">
                    <mxGeometry y="180" width="320" height="30" as="geometry"/>
                </mxCell>
                <mxCell id="396" value="g.flow_n demand_g.flow_d" style="text;strokeColor=none;fillColor=none;align=left;verticalAlign=middle;spacingLeft=4;spacingRight=4;overflow=hidden;points=[[0,0.5],[1,0.5]];portConstraint=eastwest;rotatable=0;whiteSpace=wrap;html=1;" parent="hW5n2ouBTmK9XzmkuQqM-36" vertex="1">
                    <mxGeometry y="210" width="320" height="30" as="geometry"/>
                </mxCell>
                <mxCell id="hW5n2ouBTmK9XzmkuQqM-80" value="&lt;h1&gt;Study data&lt;/h1&gt;" style="text;html=1;strokeColor=none;fillColor=none;spacing=5;spacingTop=-20;whiteSpace=wrap;overflow=hidden;rounded=0;align=center;" parent="1" vertex="1">
                    <mxGeometry x="250" width="250" height="40" as="geometry"/>
                </mxCell>
                <mxCell id="11" value="&lt;font style=&quot;&quot;&gt;&lt;b&gt;&lt;font style=&quot;font-size: 24px;&quot;&gt;Data visualization&lt;/font&gt;&lt;/b&gt;&lt;b style=&quot;&quot;&gt;&lt;font style=&quot;font-size: 24px;&quot;&gt;&amp;nbsp;option 1&lt;/font&gt;&lt;br&gt;&lt;/b&gt;&lt;/font&gt;" style="text;html=1;strokeColor=none;fillColor=none;align=center;verticalAlign=middle;whiteSpace=wrap;rounded=0;" parent="WIyWlLk6GJQsqaUBKTNV-1" vertex="1">
                    <mxGeometry x="1030" width="430" height="120" as="geometry"/>
                </mxCell>
                <mxCell id="49" value="" style="group" parent="WIyWlLk6GJQsqaUBKTNV-1" vertex="1" connectable="0">
                    <mxGeometry x="880" y="170" width="810" height="320" as="geometry"/>
                </mxCell>
                <mxCell id="2" value="" style="group;fontColor=#000000;" parent="49" vertex="1" connectable="0">
                    <mxGeometry x="120" y="30" width="80" height="110" as="geometry"/>
                </mxCell>
                <mxCell id="3" value="g" style="ellipse;whiteSpace=wrap;html=1;aspect=fixed;fillColor=#e1d5e7;strokeColor=#9673a6;fontColor=#000000;" parent="2" vertex="1">
                    <mxGeometry width="80" height="80" as="geometry"/>
                </mxCell>
                <mxCell id="4" value="flow_n" style="rounded=0;whiteSpace=wrap;html=1;fillColor=#e1d5e7;strokeColor=#9673a6;fontColor=#000000;" parent="2" vertex="1">
                    <mxGeometry x="15" y="80" width="50" height="30" as="geometry"/>
                </mxCell>
                <mxCell id="22" value="" style="group" parent="49" vertex="1" connectable="0">
                    <mxGeometry x="330" width="120" height="110.5" as="geometry"/>
                </mxCell>
                <mxCell id="13" value="electrolyzer_1" style="ellipse;whiteSpace=wrap;html=1;container=0;" parent="22" vertex="1">
                    <mxGeometry width="120" height="80" as="geometry"/>
                </mxCell>
                <mxCell id="14" value="" style="group;fillColor=#f8cecc;strokeColor=#b85450;container=0;" parent="22" vertex="1" connectable="0">
                    <mxGeometry x="10" y="80.5" width="100" height="30" as="geometry"/>
                </mxCell>
                <mxCell id="15" value="flow_out" style="rounded=0;whiteSpace=wrap;html=1;fillColor=#e1d5e7;strokeColor=#9673a6;container=0;fontColor=#000000;" parent="22" vertex="1">
                    <mxGeometry x="10" y="80.5" width="50" height="30" as="geometry"/>
                </mxCell>
                <mxCell id="16" value="flow_in" style="rounded=0;whiteSpace=wrap;html=1;fillColor=#dae8fc;strokeColor=#6c8ebf;container=0;fontColor=#000000;" parent="22" vertex="1">
                    <mxGeometry x="60" y="80.5" width="50" height="30" as="geometry"/>
                </mxCell>
                <mxCell id="25" value="" style="endArrow=none;startArrow=classic;html=1;fontSize=24;exitX=1;exitY=0.5;exitDx=0;exitDy=0;entryX=0;entryY=0.5;entryDx=0;entryDy=0;startFill=1;endFill=0;" parent="49" source="4" target="15" edge="1">
                    <mxGeometry width="50" height="50" relative="1" as="geometry">
                        <mxPoint x="430" y="60" as="sourcePoint"/>
                        <mxPoint x="480" y="10" as="targetPoint"/>
                    </mxGeometry>
                </mxCell>
                <mxCell id="27" value="" style="endArrow=classic;startArrow=none;html=1;fontSize=24;exitX=1;exitY=0.5;exitDx=0;exitDy=0;entryX=0;entryY=0.5;entryDx=0;entryDy=0;startFill=0;" parent="49" source="16" target="10" edge="1">
                    <mxGeometry width="50" height="50" relative="1" as="geometry">
                        <mxPoint x="580" y="179.75" as="sourcePoint"/>
                        <mxPoint x="735" y="230.75" as="targetPoint"/>
                    </mxGeometry>
                </mxCell>
                <mxCell id="37" value="" style="group" parent="49" vertex="1" connectable="0">
                    <mxGeometry x="120" y="190" width="80" height="60" as="geometry"/>
                </mxCell>
                <mxCell id="38" value="demand_g" style="rounded=1;whiteSpace=wrap;html=1;container=0;" parent="37" vertex="1">
                    <mxGeometry y="30" width="80" height="30" as="geometry"/>
                </mxCell>
                <mxCell id="39" value="flow_d" style="rounded=0;whiteSpace=wrap;html=1;fillColor=#e1d5e7;strokeColor=#9673a6;container=0;fontColor=#000000;" parent="37" vertex="1">
                    <mxGeometry x="15" width="50" height="30" as="geometry"/>
                </mxCell>
                <mxCell id="40" value="" style="group" parent="49" vertex="1" connectable="0">
                    <mxGeometry y="110" width="80" height="60" as="geometry"/>
                </mxCell>
                <mxCell id="41" value="prod_g" style="rounded=1;whiteSpace=wrap;html=1;container=0;" parent="40" vertex="1">
                    <mxGeometry y="30" width="80" height="30" as="geometry"/>
                </mxCell>
                <mxCell id="42" value="flow_p" style="rounded=0;whiteSpace=wrap;html=1;fillColor=#e1d5e7;strokeColor=#9673a6;container=0;fontColor=#000000;" parent="40" vertex="1">
                    <mxGeometry x="15" width="50" height="30" as="geometry"/>
                </mxCell>
                <mxCell id="43" value="" style="endArrow=classic;startArrow=none;html=1;fontSize=24;exitX=1;exitY=0.5;exitDx=0;exitDy=0;entryX=0;entryY=0.5;entryDx=0;entryDy=0;startFill=0;" parent="49" source="42" target="4" edge="1">
                    <mxGeometry width="50" height="50" relative="1" as="geometry">
                        <mxPoint x="195" y="135" as="sourcePoint"/>
                        <mxPoint x="350" y="175" as="targetPoint"/>
                    </mxGeometry>
                </mxCell>
                <mxCell id="44" value="" style="endArrow=classic;startArrow=none;html=1;fontSize=24;exitX=0.5;exitY=0;exitDx=0;exitDy=0;entryX=0.5;entryY=1;entryDx=0;entryDy=0;startFill=0;" parent="49" source="39" target="4" edge="1">
                    <mxGeometry width="50" height="50" relative="1" as="geometry">
                        <mxPoint x="90" y="200" as="sourcePoint"/>
                        <mxPoint x="170" y="150" as="targetPoint"/>
                    </mxGeometry>
                </mxCell>
                <mxCell id="45" value="" style="endArrow=classic;startArrow=none;html=1;fontSize=24;exitX=0;exitY=0.5;exitDx=0;exitDy=0;entryX=1;entryY=0.5;entryDx=0;entryDy=0;startFill=0;" parent="49" source="36" target="10" edge="1">
                    <mxGeometry width="50" height="50" relative="1" as="geometry">
                        <mxPoint x="100" y="240" as="sourcePoint"/>
                        <mxPoint x="170" y="150" as="targetPoint"/>
                    </mxGeometry>
                </mxCell>
                <mxCell id="46" value="" style="endArrow=classic;startArrow=none;html=1;fontSize=24;exitX=0;exitY=0.5;exitDx=0;exitDy=0;entryX=1;entryY=0.5;entryDx=0;entryDy=0;startFill=0;" parent="49" source="31" target="146" edge="1">
                    <mxGeometry width="50" height="50" relative="1" as="geometry">
                        <mxPoint x="570" y="200" as="sourcePoint"/>
                        <mxPoint x="640" y="150" as="targetPoint"/>
                    </mxGeometry>
                </mxCell>
                <mxCell id="33" value="" style="group" parent="49" vertex="1" connectable="0">
                    <mxGeometry x="680" y="240" width="80" height="60" as="geometry"/>
                </mxCell>
                <mxCell id="30" value="prod_e" style="rounded=1;whiteSpace=wrap;html=1;container=0;" parent="33" vertex="1">
                    <mxGeometry y="30" width="80" height="30" as="geometry"/>
                </mxCell>
                <mxCell id="31" value="&lt;font color=&quot;#000000&quot;&gt;flow_p&lt;/font&gt;" style="rounded=0;whiteSpace=wrap;html=1;fillColor=#dae8fc;strokeColor=#6c8ebf;container=0;" parent="33" vertex="1">
                    <mxGeometry x="15" width="50" height="30" as="geometry"/>
                </mxCell>
                <mxCell id="206" value="" style="group" parent="49" vertex="1" connectable="0">
                    <mxGeometry x="330" y="179.5" width="120" height="110.5" as="geometry"/>
                </mxCell>
                <mxCell id="207" value="electrolyzer_2" style="ellipse;whiteSpace=wrap;html=1;container=0;" parent="206" vertex="1">
                    <mxGeometry width="120" height="80" as="geometry"/>
                </mxCell>
                <mxCell id="208" value="" style="group;fillColor=#f8cecc;strokeColor=#b85450;container=0;" parent="206" vertex="1" connectable="0">
                    <mxGeometry x="10" y="80.5" width="100" height="30" as="geometry"/>
                </mxCell>
                <mxCell id="255" value="" style="edgeStyle=none;html=1;fontColor=#000000;startArrow=none;startFill=0;endArrow=none;endFill=0;" parent="206" source="209" target="210" edge="1">
                    <mxGeometry relative="1" as="geometry"/>
                </mxCell>
                <mxCell id="209" value="flow_out" style="rounded=0;whiteSpace=wrap;html=1;fillColor=#e1d5e7;strokeColor=#9673a6;container=0;fontColor=#000000;" parent="206" vertex="1">
                    <mxGeometry x="10" y="80.5" width="50" height="30" as="geometry"/>
                </mxCell>
                <mxCell id="210" value="flow_in" style="rounded=0;whiteSpace=wrap;html=1;fillColor=#dae8fc;strokeColor=#6c8ebf;container=0;fontColor=#000000;" parent="206" vertex="1">
                    <mxGeometry x="60" y="80.5" width="50" height="30" as="geometry"/>
                </mxCell>
                <mxCell id="211" value="" style="endArrow=none;startArrow=classic;html=1;fontSize=24;exitX=1;exitY=0.75;exitDx=0;exitDy=0;entryX=0;entryY=0.5;entryDx=0;entryDy=0;endFill=0;" parent="49" source="4" target="209" edge="1">
                    <mxGeometry width="50" height="50" relative="1" as="geometry">
                        <mxPoint x="195" y="135" as="sourcePoint"/>
                        <mxPoint x="350" y="105.5" as="targetPoint"/>
                    </mxGeometry>
                </mxCell>
                <mxCell id="212" value="" style="endArrow=classic;startArrow=none;html=1;fontSize=24;exitX=1;exitY=0.5;exitDx=0;exitDy=0;entryX=0;entryY=0.5;entryDx=0;entryDy=0;startFill=0;" parent="49" source="210" target="146" edge="1">
                    <mxGeometry width="50" height="50" relative="1" as="geometry">
                        <mxPoint x="205" y="145" as="sourcePoint"/>
                        <mxPoint x="360" y="115.5" as="targetPoint"/>
                    </mxGeometry>
                </mxCell>
                <mxCell id="8" value="" style="group" parent="49" vertex="1" connectable="0">
                    <mxGeometry x="530" y="10" width="80" height="110" as="geometry"/>
                </mxCell>
                <mxCell id="9" value="e_1" style="ellipse;whiteSpace=wrap;html=1;aspect=fixed;fillColor=#dae8fc;strokeColor=#6c8ebf;fontColor=#000000;" parent="8" vertex="1">
                    <mxGeometry width="80" height="80" as="geometry"/>
                </mxCell>
                <mxCell id="10" value="flow_n" style="rounded=0;whiteSpace=wrap;html=1;fillColor=#dae8fc;strokeColor=#6c8ebf;fontColor=#000000;" parent="8" vertex="1">
                    <mxGeometry x="15" y="80" width="50" height="30" as="geometry"/>
                </mxCell>
                <mxCell id="34" value="" style="group" parent="49" vertex="1" connectable="0">
                    <mxGeometry x="660" y="90" width="80" height="60" as="geometry"/>
                </mxCell>
                <mxCell id="35" value="demand_e" style="rounded=1;whiteSpace=wrap;html=1;container=0;" parent="34" vertex="1">
                    <mxGeometry y="30" width="80" height="30" as="geometry"/>
                </mxCell>
                <mxCell id="36" value="flow_d" style="rounded=0;whiteSpace=wrap;html=1;fillColor=#dae8fc;strokeColor=#6c8ebf;container=0;fontColor=#000000;" parent="34" vertex="1">
                    <mxGeometry x="15" width="50" height="30" as="geometry"/>
                </mxCell>
                <mxCell id="144" value="" style="group" parent="49" vertex="1" connectable="0">
                    <mxGeometry x="530" y="180" width="80" height="110" as="geometry"/>
                </mxCell>
                <mxCell id="145" value="e_2" style="ellipse;whiteSpace=wrap;html=1;aspect=fixed;fillColor=#dae8fc;strokeColor=#6c8ebf;fontColor=#000000;" parent="144" vertex="1">
                    <mxGeometry width="80" height="80" as="geometry"/>
                </mxCell>
                <mxCell id="146" value="flow_n" style="rounded=0;whiteSpace=wrap;html=1;fillColor=#dae8fc;strokeColor=#6c8ebf;fontColor=#000000;" parent="144" vertex="1">
                    <mxGeometry x="15" y="80" width="50" height="30" as="geometry"/>
                </mxCell>
                <mxCell id="50" value="E2" style="ellipse;whiteSpace=wrap;html=1;aspect=fixed;" parent="WIyWlLk6GJQsqaUBKTNV-1" vertex="1">
                    <mxGeometry x="570" y="-110" width="80" height="80" as="geometry"/>
                </mxCell>
                <mxCell id="171" value="" style="endArrow=none;dashed=1;html=1;rounded=0;" parent="WIyWlLk6GJQsqaUBKTNV-1" edge="1">
                    <mxGeometry width="50" height="50" relative="1" as="geometry">
                        <mxPoint x="440" y="-10" as="sourcePoint"/>
                        <mxPoint x="440" y="-150" as="targetPoint"/>
                    </mxGeometry>
                </mxCell>
                <mxCell id="170" value="Electrolyzer" style="rounded=1;whiteSpace=wrap;html=1;" parent="WIyWlLk6GJQsqaUBKTNV-1" vertex="1">
                    <mxGeometry x="400" y="-185" width="90" height="30" as="geometry"/>
                </mxCell>
                <mxCell id="172" value="" style="endArrow=classic;html=1;rounded=0;entryX=0;entryY=0.5;entryDx=0;entryDy=0;exitX=1;exitY=0.5;exitDx=0;exitDy=0;" parent="WIyWlLk6GJQsqaUBKTNV-1" source="hW5n2ouBTmK9XzmkuQqM-59" target="hW5n2ouBTmK9XzmkuQqM-66" edge="1">
                    <mxGeometry width="50" height="50" relative="1" as="geometry">
                        <mxPoint x="720" y="-60" as="sourcePoint"/>
                        <mxPoint x="660" y="-60" as="targetPoint"/>
                    </mxGeometry>
                </mxCell>
                <mxCell id="173" value="" style="endArrow=classic;html=1;rounded=0;entryX=1;entryY=0;entryDx=0;entryDy=0;exitX=0;exitY=0.5;exitDx=0;exitDy=0;" parent="WIyWlLk6GJQsqaUBKTNV-1" source="hW5n2ouBTmK9XzmkuQqM-59" target="170" edge="1">
                    <mxGeometry width="50" height="50" relative="1" as="geometry">
                        <mxPoint x="660" y="-210" as="sourcePoint"/>
                        <mxPoint x="709" y="-210" as="targetPoint"/>
                    </mxGeometry>
                </mxCell>
                <mxCell id="174" value="" style="endArrow=classic;html=1;rounded=0;entryX=1;entryY=1;entryDx=0;entryDy=0;exitX=0;exitY=0.5;exitDx=0;exitDy=0;" parent="WIyWlLk6GJQsqaUBKTNV-1" source="50" target="170" edge="1">
                    <mxGeometry width="50" height="50" relative="1" as="geometry">
                        <mxPoint x="580" y="-210" as="sourcePoint"/>
                        <mxPoint x="500" y="-175" as="targetPoint"/>
                    </mxGeometry>
                </mxCell>
                <mxCell id="175" value="" style="endArrow=classic;html=1;rounded=0;entryX=1;entryY=0.5;entryDx=0;entryDy=0;exitX=0;exitY=0.5;exitDx=0;exitDy=0;" parent="WIyWlLk6GJQsqaUBKTNV-1" source="170" target="hW5n2ouBTmK9XzmkuQqM-58" edge="1">
                    <mxGeometry width="50" height="50" relative="1" as="geometry">
                        <mxPoint x="590" y="-200" as="sourcePoint"/>
                        <mxPoint x="510" y="-165" as="targetPoint"/>
                    </mxGeometry>
                </mxCell>
                <mxCell id="hW5n2ouBTmK9XzmkuQqM-79" value="&lt;h1&gt;Ports and models&lt;/h1&gt;" style="text;html=1;strokeColor=none;fillColor=none;spacing=5;spacingTop=-20;whiteSpace=wrap;overflow=hidden;rounded=0;" parent="WIyWlLk6GJQsqaUBKTNV-1" vertex="1">
                    <mxGeometry x="1134.5" y="-720" width="250" height="40" as="geometry"/>
                </mxCell>
                <mxCell id="213" value="UpperBound : Model" style="swimlane;fontStyle=0;childLayout=stackLayout;horizontal=1;startSize=30;horizontalStack=0;resizeParent=1;resizeParentMax=0;resizeLast=0;collapsible=1;marginBottom=0;whiteSpace=wrap;html=1;fillColor=#ccffcc;fontColor=#000000;" parent="WIyWlLk6GJQsqaUBKTNV-1" vertex="1">
                    <mxGeometry x="1350" y="-630" width="200" height="120" as="geometry"/>
                </mxCell>
                <mxCell id="214" value="p_max : Parameter" style="text;strokeColor=none;fillColor=none;align=left;verticalAlign=middle;spacingLeft=4;spacingRight=4;overflow=hidden;points=[[0,0.5],[1,0.5]];portConstraint=eastwest;rotatable=0;whiteSpace=wrap;html=1;" parent="213" vertex="1">
                    <mxGeometry y="30" width="200" height="30" as="geometry"/>
                </mxCell>
                <mxCell id="216" value="flow_ub : Flow" style="text;strokeColor=none;fillColor=none;align=left;verticalAlign=middle;spacingLeft=4;spacingRight=4;overflow=hidden;points=[[0,0.5],[1,0.5]];portConstraint=eastwest;rotatable=0;whiteSpace=wrap;html=1;" parent="213" vertex="1">
                    <mxGeometry y="60" width="200" height="30" as="geometry"/>
                </mxCell>
                <mxCell id="217" value="flow_ub.sum() &amp;lt;= p_max" style="text;strokeColor=none;fillColor=none;align=left;verticalAlign=middle;spacingLeft=4;spacingRight=4;overflow=hidden;points=[[0,0.5],[1,0.5]];portConstraint=eastwest;rotatable=0;whiteSpace=wrap;html=1;" parent="213" vertex="1">
                    <mxGeometry y="90" width="200" height="30" as="geometry"/>
                </mxCell>
                <mxCell id="218" value="" style="group;fontColor=#000000;" parent="WIyWlLk6GJQsqaUBKTNV-1" vertex="1" connectable="0">
                    <mxGeometry x="1060" y="500" width="100" height="60" as="geometry"/>
                </mxCell>
                <mxCell id="219" value="capacity_electrolyzer" style="rounded=1;whiteSpace=wrap;html=1;container=0;" parent="218" vertex="1">
                    <mxGeometry x="-30" y="30" width="130" height="30" as="geometry"/>
                </mxCell>
                <mxCell id="220" value="flow_k" style="rounded=0;whiteSpace=wrap;html=1;fillColor=#e1d5e7;strokeColor=#9673a6;container=0;fontColor=#000000;" parent="218" vertex="1">
                    <mxGeometry x="10" width="50" height="30" as="geometry"/>
                </mxCell>
                <mxCell id="221" value="" style="endArrow=none;startArrow=classic;html=1;fontSize=24;exitX=0.5;exitY=0;exitDx=0;exitDy=0;entryX=0;entryY=1;entryDx=0;entryDy=0;endFill=0;" parent="WIyWlLk6GJQsqaUBKTNV-1" source="220" target="15" edge="1">
                    <mxGeometry width="50" height="50" relative="1" as="geometry">
                        <mxPoint x="1075" y="305" as="sourcePoint"/>
                        <mxPoint x="1230" y="275.5" as="targetPoint"/>
                    </mxGeometry>
                </mxCell>
                <mxCell id="222" value="" style="endArrow=none;startArrow=classic;html=1;fontSize=24;exitX=1;exitY=0.5;exitDx=0;exitDy=0;entryX=0;entryY=1;entryDx=0;entryDy=0;endFill=0;" parent="WIyWlLk6GJQsqaUBKTNV-1" source="220" target="209" edge="1">
                    <mxGeometry width="50" height="50" relative="1" as="geometry">
                        <mxPoint x="1085" y="315" as="sourcePoint"/>
                        <mxPoint x="1240" y="285.5" as="targetPoint"/>
                    </mxGeometry>
                </mxCell>
                <mxCell id="223" value="&lt;span style=&quot;color: rgb(240, 240, 240);&quot;&gt;File &quot;network.txt&quot;&lt;/span&gt;" style="swimlane;fontStyle=0;childLayout=stackLayout;horizontal=1;startSize=30;horizontalStack=0;resizeParent=1;resizeParentMax=0;resizeLast=0;collapsible=1;marginBottom=0;whiteSpace=wrap;html=1;strokeColor=#000000;fillColor=#CCCCFF;fontColor=#000000;" parent="WIyWlLk6GJQsqaUBKTNV-1" vertex="1">
                    <mxGeometry x="1095" y="600" width="320" height="300" as="geometry"/>
                </mxCell>
                <mxCell id="231" value="electrolyzer_1 : Converter" style="text;strokeColor=none;fillColor=none;align=left;verticalAlign=middle;spacingLeft=4;spacingRight=4;overflow=hidden;points=[[0,0.5],[1,0.5]];portConstraint=eastwest;rotatable=0;whiteSpace=wrap;html=1;" parent="223" vertex="1">
                    <mxGeometry y="30" width="320" height="30" as="geometry"/>
                </mxCell>
                <mxCell id="251" value="electrolyzer_1 : Converter" style="text;strokeColor=none;fillColor=none;align=left;verticalAlign=middle;spacingLeft=4;spacingRight=4;overflow=hidden;points=[[0,0.5],[1,0.5]];portConstraint=eastwest;rotatable=0;whiteSpace=wrap;html=1;" parent="223" vertex="1">
                    <mxGeometry y="60" width="320" height="30" as="geometry"/>
                </mxCell>
                <mxCell id="236" value="&lt;span style=&quot;text-align: center;&quot;&gt;capacity_electrolyzer : UpperBound&lt;/span&gt;" style="text;strokeColor=none;fillColor=none;align=left;verticalAlign=middle;spacingLeft=4;spacingRight=4;overflow=hidden;points=[[0,0.5],[1,0.5]];portConstraint=eastwest;rotatable=0;whiteSpace=wrap;html=1;" parent="223" vertex="1">
                    <mxGeometry y="90" width="320" height="30" as="geometry"/>
                </mxCell>
                <mxCell id="234" value="" style="endArrow=none;dashed=1;html=1;rounded=0;exitX=0;exitY=0.5;exitDx=0;exitDy=0;entryX=1;entryY=0.5;entryDx=0;entryDy=0;" parent="223" edge="1">
                    <mxGeometry width="50" height="50" relative="1" as="geometry">
                        <mxPoint x="10" y="119.99999999999989" as="sourcePoint"/>
                        <mxPoint x="320" y="119.99999999999989" as="targetPoint"/>
                    </mxGeometry>
                </mxCell>
                <mxCell id="242" value="e_1.flow_n electrolyzer_1.flow_in" style="text;strokeColor=none;fillColor=none;align=left;verticalAlign=middle;spacingLeft=4;spacingRight=4;overflow=hidden;points=[[0,0.5],[1,0.5]];portConstraint=eastwest;rotatable=0;whiteSpace=wrap;html=1;" parent="223" vertex="1">
                    <mxGeometry y="120" width="320" height="30" as="geometry"/>
                </mxCell>
                <mxCell id="243" value="g.flow_n electrolyzer_1.flow_out" style="text;strokeColor=none;fillColor=none;align=left;verticalAlign=middle;spacingLeft=4;spacingRight=4;overflow=hidden;points=[[0,0.5],[1,0.5]];portConstraint=eastwest;rotatable=0;whiteSpace=wrap;html=1;" parent="223" vertex="1">
                    <mxGeometry y="150" width="320" height="30" as="geometry"/>
                </mxCell>
                <mxCell id="253" value="e_2.flow_n electrolyzer_2.flow_in" style="text;strokeColor=none;fillColor=none;align=left;verticalAlign=middle;spacingLeft=4;spacingRight=4;overflow=hidden;points=[[0,0.5],[1,0.5]];portConstraint=eastwest;rotatable=0;whiteSpace=wrap;html=1;" parent="223" vertex="1">
                    <mxGeometry y="180" width="320" height="30" as="geometry"/>
                </mxCell>
                <mxCell id="252" value="g.flow_n electrolyzer_2.flow_out" style="text;strokeColor=none;fillColor=none;align=left;verticalAlign=middle;spacingLeft=4;spacingRight=4;overflow=hidden;points=[[0,0.5],[1,0.5]];portConstraint=eastwest;rotatable=0;whiteSpace=wrap;html=1;" parent="223" vertex="1">
                    <mxGeometry y="210" width="320" height="30" as="geometry"/>
                </mxCell>
                <mxCell id="254" value="capacity_electrolyzer.flow_k electrolyzer_1.flow_out" style="text;strokeColor=none;fillColor=none;align=left;verticalAlign=middle;spacingLeft=4;spacingRight=4;overflow=hidden;points=[[0,0.5],[1,0.5]];portConstraint=eastwest;rotatable=0;whiteSpace=wrap;html=1;" parent="223" vertex="1">
                    <mxGeometry y="240" width="320" height="30" as="geometry"/>
                </mxCell>
                <mxCell id="256" value="capacity_electrolyzer.flow_k electrolyzer_2.flow_out" style="text;strokeColor=none;fillColor=none;align=left;verticalAlign=middle;spacingLeft=4;spacingRight=4;overflow=hidden;points=[[0,0.5],[1,0.5]];portConstraint=eastwest;rotatable=0;whiteSpace=wrap;html=1;" parent="223" vertex="1">
                    <mxGeometry y="270" width="320" height="30" as="geometry"/>
                </mxCell>
                <mxCell id="258" value="&lt;font style=&quot;&quot;&gt;&lt;b&gt;&lt;font style=&quot;font-size: 24px;&quot;&gt;Data visualization&lt;/font&gt;&lt;/b&gt;&lt;b&gt;&lt;font style=&quot;font-size: 24px;&quot;&gt;&amp;nbsp;option 2&lt;/font&gt;&lt;/b&gt;&lt;b style=&quot;&quot;&gt;&lt;br&gt;&lt;/b&gt;&lt;/font&gt;" style="text;html=1;strokeColor=none;fillColor=none;align=center;verticalAlign=middle;whiteSpace=wrap;rounded=0;" parent="WIyWlLk6GJQsqaUBKTNV-1" vertex="1">
                    <mxGeometry x="1830" y="20" width="430" height="120" as="geometry"/>
                </mxCell>
                <mxCell id="259" value="" style="group" parent="WIyWlLk6GJQsqaUBKTNV-1" vertex="1" connectable="0">
                    <mxGeometry x="1680" y="190" width="810" height="320" as="geometry"/>
                </mxCell>
                <mxCell id="260" value="" style="group;fontColor=#000000;" parent="259" vertex="1" connectable="0">
                    <mxGeometry x="120" y="30" width="80" height="110" as="geometry"/>
                </mxCell>
                <mxCell id="261" value="g" style="ellipse;whiteSpace=wrap;html=1;aspect=fixed;fillColor=#e1d5e7;strokeColor=#9673a6;fontColor=#000000;" parent="260" vertex="1">
                    <mxGeometry width="80" height="80" as="geometry"/>
                </mxCell>
                <mxCell id="262" value="flow_n" style="rounded=0;whiteSpace=wrap;html=1;fillColor=#e1d5e7;strokeColor=#9673a6;fontColor=#000000;" parent="260" vertex="1">
                    <mxGeometry x="15" y="80" width="50" height="30" as="geometry"/>
                </mxCell>
                <mxCell id="268" value="" style="endArrow=none;startArrow=classic;html=1;fontSize=24;exitX=1;exitY=0.5;exitDx=0;exitDy=0;entryX=0;entryY=0.5;entryDx=0;entryDy=0;startFill=1;endFill=0;" parent="259" source="262" target="266" edge="1">
                    <mxGeometry width="50" height="50" relative="1" as="geometry">
                        <mxPoint x="430" y="60" as="sourcePoint"/>
                        <mxPoint x="480" y="10" as="targetPoint"/>
                    </mxGeometry>
                </mxCell>
                <mxCell id="269" value="" style="endArrow=classic;startArrow=none;html=1;fontSize=24;exitX=1;exitY=0.5;exitDx=0;exitDy=0;entryX=0;entryY=0.5;entryDx=0;entryDy=0;startFill=0;" parent="259" source="267" target="293" edge="1">
                    <mxGeometry width="50" height="50" relative="1" as="geometry">
                        <mxPoint x="580" y="179.75" as="sourcePoint"/>
                        <mxPoint x="735" y="230.75" as="targetPoint"/>
                    </mxGeometry>
                </mxCell>
                <mxCell id="270" value="" style="group" parent="259" vertex="1" connectable="0">
                    <mxGeometry x="120" y="190" width="80" height="60" as="geometry"/>
                </mxCell>
                <mxCell id="271" value="demand_g" style="rounded=1;whiteSpace=wrap;html=1;container=0;" parent="270" vertex="1">
                    <mxGeometry y="30" width="80" height="30" as="geometry"/>
                </mxCell>
                <mxCell id="272" value="flow_d" style="rounded=0;whiteSpace=wrap;html=1;fillColor=#e1d5e7;strokeColor=#9673a6;container=0;fontColor=#000000;" parent="270" vertex="1">
                    <mxGeometry x="15" width="50" height="30" as="geometry"/>
                </mxCell>
                <mxCell id="273" value="" style="group" parent="259" vertex="1" connectable="0">
                    <mxGeometry y="110" width="80" height="60" as="geometry"/>
                </mxCell>
                <mxCell id="274" value="prod_g" style="rounded=1;whiteSpace=wrap;html=1;container=0;" parent="273" vertex="1">
                    <mxGeometry y="30" width="80" height="30" as="geometry"/>
                </mxCell>
                <mxCell id="275" value="flow_p" style="rounded=0;whiteSpace=wrap;html=1;fillColor=#e1d5e7;strokeColor=#9673a6;container=0;fontColor=#000000;" parent="273" vertex="1">
                    <mxGeometry x="15" width="50" height="30" as="geometry"/>
                </mxCell>
                <mxCell id="276" value="" style="endArrow=classic;startArrow=none;html=1;fontSize=24;exitX=1;exitY=0.5;exitDx=0;exitDy=0;entryX=0;entryY=0.5;entryDx=0;entryDy=0;startFill=0;" parent="259" source="275" target="262" edge="1">
                    <mxGeometry width="50" height="50" relative="1" as="geometry">
                        <mxPoint x="195" y="135" as="sourcePoint"/>
                        <mxPoint x="350" y="175" as="targetPoint"/>
                    </mxGeometry>
                </mxCell>
                <mxCell id="277" value="" style="endArrow=classic;startArrow=none;html=1;fontSize=24;exitX=0.5;exitY=0;exitDx=0;exitDy=0;entryX=0.5;entryY=1;entryDx=0;entryDy=0;startFill=0;" parent="259" source="272" target="262" edge="1">
                    <mxGeometry width="50" height="50" relative="1" as="geometry">
                        <mxPoint x="90" y="200" as="sourcePoint"/>
                        <mxPoint x="170" y="150" as="targetPoint"/>
                    </mxGeometry>
                </mxCell>
                <mxCell id="278" value="" style="endArrow=classic;startArrow=none;html=1;fontSize=24;exitX=0;exitY=0.5;exitDx=0;exitDy=0;entryX=1;entryY=0.5;entryDx=0;entryDy=0;startFill=0;" parent="259" source="296" target="293" edge="1">
                    <mxGeometry width="50" height="50" relative="1" as="geometry">
                        <mxPoint x="100" y="240" as="sourcePoint"/>
                        <mxPoint x="170" y="150" as="targetPoint"/>
                    </mxGeometry>
                </mxCell>
                <mxCell id="279" value="" style="endArrow=classic;startArrow=none;html=1;fontSize=24;exitX=0;exitY=0.5;exitDx=0;exitDy=0;entryX=1;entryY=0.5;entryDx=0;entryDy=0;startFill=0;" parent="259" source="282" target="299" edge="1">
                    <mxGeometry width="50" height="50" relative="1" as="geometry">
                        <mxPoint x="570" y="200" as="sourcePoint"/>
                        <mxPoint x="640" y="150" as="targetPoint"/>
                    </mxGeometry>
                </mxCell>
                <mxCell id="280" value="" style="group" parent="259" vertex="1" connectable="0">
                    <mxGeometry x="680" y="240" width="80" height="60" as="geometry"/>
                </mxCell>
                <mxCell id="281" value="prod_e" style="rounded=1;whiteSpace=wrap;html=1;container=0;" parent="280" vertex="1">
                    <mxGeometry y="30" width="80" height="30" as="geometry"/>
                </mxCell>
                <mxCell id="282" value="&lt;span style=&quot;color: rgb(0, 0, 0);&quot;&gt;flow_p&lt;/span&gt;" style="rounded=0;whiteSpace=wrap;html=1;fillColor=#dae8fc;strokeColor=#6c8ebf;container=0;" parent="280" vertex="1">
                    <mxGeometry x="15" width="50" height="30" as="geometry"/>
                </mxCell>
                <mxCell id="290" value="" style="endArrow=classic;startArrow=none;html=1;fontSize=24;exitX=1;exitY=0.5;exitDx=0;exitDy=0;entryX=0;entryY=0.5;entryDx=0;entryDy=0;startFill=0;" parent="259" source="316" target="299" edge="1">
                    <mxGeometry width="50" height="50" relative="1" as="geometry">
                        <mxPoint x="440" y="275" as="sourcePoint"/>
                        <mxPoint x="360" y="115.5" as="targetPoint"/>
                    </mxGeometry>
                </mxCell>
                <mxCell id="291" value="" style="group" parent="259" vertex="1" connectable="0">
                    <mxGeometry x="530" y="10" width="80" height="110" as="geometry"/>
                </mxCell>
                <mxCell id="292" value="e_1" style="ellipse;whiteSpace=wrap;html=1;aspect=fixed;fillColor=#dae8fc;strokeColor=#6c8ebf;fontColor=#000000;" parent="291" vertex="1">
                    <mxGeometry width="80" height="80" as="geometry"/>
                </mxCell>
                <mxCell id="293" value="flow_n" style="rounded=0;whiteSpace=wrap;html=1;fillColor=#dae8fc;strokeColor=#6c8ebf;fontColor=#000000;" parent="291" vertex="1">
                    <mxGeometry x="15" y="80" width="50" height="30" as="geometry"/>
                </mxCell>
                <mxCell id="294" value="" style="group" parent="259" vertex="1" connectable="0">
                    <mxGeometry x="660" y="90" width="80" height="60" as="geometry"/>
                </mxCell>
                <mxCell id="295" value="demand_e" style="rounded=1;whiteSpace=wrap;html=1;container=0;" parent="294" vertex="1">
                    <mxGeometry y="30" width="80" height="30" as="geometry"/>
                </mxCell>
                <mxCell id="296" value="flow_d" style="rounded=0;whiteSpace=wrap;html=1;fillColor=#dae8fc;strokeColor=#6c8ebf;container=0;fontColor=#000000;" parent="294" vertex="1">
                    <mxGeometry x="15" width="50" height="30" as="geometry"/>
                </mxCell>
                <mxCell id="297" value="" style="group" parent="259" vertex="1" connectable="0">
                    <mxGeometry x="530" y="180" width="80" height="110" as="geometry"/>
                </mxCell>
                <mxCell id="298" value="e_2" style="ellipse;whiteSpace=wrap;html=1;aspect=fixed;fillColor=#dae8fc;strokeColor=#6c8ebf;fontColor=#000000;" parent="297" vertex="1">
                    <mxGeometry width="80" height="80" as="geometry"/>
                </mxCell>
                <mxCell id="299" value="flow_n" style="rounded=0;whiteSpace=wrap;html=1;fillColor=#dae8fc;strokeColor=#6c8ebf;fontColor=#000000;" parent="297" vertex="1">
                    <mxGeometry x="15" y="80" width="50" height="30" as="geometry"/>
                </mxCell>
                <mxCell id="263" value="" style="group" parent="259" vertex="1" connectable="0">
                    <mxGeometry x="310" y="79.5" width="120" height="130.5" as="geometry"/>
                </mxCell>
                <mxCell id="264" value="electrolyzer_1" style="ellipse;whiteSpace=wrap;html=1;container=0;" parent="263" vertex="1">
                    <mxGeometry width="120" height="80" as="geometry"/>
                </mxCell>
                <mxCell id="265" value="" style="group;fillColor=#f8cecc;strokeColor=#b85450;container=0;" parent="263" vertex="1" connectable="0">
                    <mxGeometry x="10" y="80.5" width="100" height="30" as="geometry"/>
                </mxCell>
                <mxCell id="266" value="flow_out" style="rounded=0;whiteSpace=wrap;html=1;fillColor=#e1d5e7;strokeColor=#9673a6;container=0;fontColor=#000000;" parent="263" vertex="1">
                    <mxGeometry x="10" y="80.5" width="50" height="30" as="geometry"/>
                </mxCell>
                <mxCell id="267" value="flow_in_1" style="rounded=0;whiteSpace=wrap;html=1;fillColor=#dae8fc;strokeColor=#6c8ebf;container=0;fontColor=#000000;" parent="263" vertex="1">
                    <mxGeometry x="60" y="80.5" width="50" height="30" as="geometry"/>
                </mxCell>
                <mxCell id="316" value="flow_in_2" style="rounded=0;whiteSpace=wrap;html=1;fillColor=#dae8fc;strokeColor=#6c8ebf;container=0;fontColor=#000000;" parent="263" vertex="1">
                    <mxGeometry x="60" y="110.5" width="50" height="30" as="geometry"/>
                </mxCell>
                <mxCell id="305" value="&lt;span style=&quot;color: rgb(240, 240, 240);&quot;&gt;File &quot;network.txt&quot;&lt;/span&gt;" style="swimlane;fontStyle=0;childLayout=stackLayout;horizontal=1;startSize=30;horizontalStack=0;resizeParent=1;resizeParentMax=0;resizeLast=0;collapsible=1;marginBottom=0;whiteSpace=wrap;html=1;fontColor=#000000;fillColor=#CCCCFF;" parent="WIyWlLk6GJQsqaUBKTNV-1" vertex="1">
                    <mxGeometry x="1885" y="520" width="320" height="150" as="geometry"/>
                </mxCell>
                <mxCell id="306" value="electrolyzer_1 : Converter2Input" style="text;strokeColor=none;fillColor=none;align=left;verticalAlign=middle;spacingLeft=4;spacingRight=4;overflow=hidden;points=[[0,0.5],[1,0.5]];portConstraint=eastwest;rotatable=0;whiteSpace=wrap;html=1;" parent="305" vertex="1">
                    <mxGeometry y="30" width="320" height="30" as="geometry"/>
                </mxCell>
                <mxCell id="309" value="" style="endArrow=none;dashed=1;html=1;rounded=0;exitX=0;exitY=0.5;exitDx=0;exitDy=0;entryX=1;entryY=0.5;entryDx=0;entryDy=0;" parent="305" edge="1">
                    <mxGeometry width="50" height="50" relative="1" as="geometry">
                        <mxPoint x="10" y="59.999999999999886" as="sourcePoint"/>
                        <mxPoint x="320" y="59.999999999999886" as="targetPoint"/>
                    </mxGeometry>
                </mxCell>
                <mxCell id="317" value="e_1.flow_n electrolyzer_1.flow_in_1" style="text;strokeColor=none;fillColor=none;align=left;verticalAlign=middle;spacingLeft=4;spacingRight=4;overflow=hidden;points=[[0,0.5],[1,0.5]];portConstraint=eastwest;rotatable=0;whiteSpace=wrap;html=1;" parent="305" vertex="1">
                    <mxGeometry y="60" width="320" height="30" as="geometry"/>
                </mxCell>
                <mxCell id="310" value="e_2.flow_n electrolyzer_1.flow_in_2" style="text;strokeColor=none;fillColor=none;align=left;verticalAlign=middle;spacingLeft=4;spacingRight=4;overflow=hidden;points=[[0,0.5],[1,0.5]];portConstraint=eastwest;rotatable=0;whiteSpace=wrap;html=1;" parent="305" vertex="1">
                    <mxGeometry y="90" width="320" height="30" as="geometry"/>
                </mxCell>
                <mxCell id="311" value="g.flow_n electrolyzer_1.flow_out" style="text;strokeColor=none;fillColor=none;align=left;verticalAlign=middle;spacingLeft=4;spacingRight=4;overflow=hidden;points=[[0,0.5],[1,0.5]];portConstraint=eastwest;rotatable=0;whiteSpace=wrap;html=1;" parent="305" vertex="1">
                    <mxGeometry y="120" width="320" height="30" as="geometry"/>
                </mxCell>
                <mxCell id="388" value="&lt;h1&gt;Physical system&lt;br&gt;&lt;/h1&gt;" style="text;html=1;strokeColor=none;fillColor=none;spacing=5;spacingTop=-20;whiteSpace=wrap;overflow=hidden;rounded=0;" parent="WIyWlLk6GJQsqaUBKTNV-1" vertex="1">
                    <mxGeometry x="324" y="-510" width="250" height="40" as="geometry"/>
                </mxCell>
                <mxCell id="456" value="&lt;font style=&quot;&quot;&gt;&lt;b&gt;&lt;font style=&quot;font-size: 24px;&quot;&gt;Data visualization&lt;/font&gt;&lt;/b&gt;&lt;b&gt;&lt;font style=&quot;font-size: 24px;&quot;&gt;&amp;nbsp;option 3&lt;/font&gt;&lt;/b&gt;&lt;b style=&quot;&quot;&gt;&lt;br&gt;&lt;/b&gt;&lt;/font&gt;" style="text;html=1;strokeColor=none;fillColor=none;align=center;verticalAlign=middle;whiteSpace=wrap;rounded=0;" parent="WIyWlLk6GJQsqaUBKTNV-1" vertex="1">
                    <mxGeometry x="986" y="1169" width="430" height="120" as="geometry"/>
                </mxCell>
                <mxCell id="457" value="" style="group" parent="WIyWlLk6GJQsqaUBKTNV-1" vertex="1" connectable="0">
                    <mxGeometry x="836" y="1339" width="810" height="380.5" as="geometry"/>
                </mxCell>
                <mxCell id="458" value="" style="group;fontColor=#000000;" parent="457" vertex="1" connectable="0">
                    <mxGeometry x="120" y="30" width="80" height="110" as="geometry"/>
                </mxCell>
                <mxCell id="459" value="g" style="ellipse;whiteSpace=wrap;html=1;aspect=fixed;fillColor=#e1d5e7;strokeColor=#9673a6;fontColor=#000000;" parent="458" vertex="1">
                    <mxGeometry width="80" height="80" as="geometry"/>
                </mxCell>
                <mxCell id="460" value="flow_n" style="rounded=0;whiteSpace=wrap;html=1;fillColor=#e1d5e7;strokeColor=#9673a6;fontColor=#000000;" parent="458" vertex="1">
                    <mxGeometry x="15" y="80" width="50" height="30" as="geometry"/>
                </mxCell>
                <mxCell id="461" value="" style="endArrow=none;startArrow=classic;html=1;fontSize=24;exitX=1;exitY=0.5;exitDx=0;exitDy=0;entryX=0;entryY=0.5;entryDx=0;entryDy=0;startFill=1;endFill=0;" parent="457" source="460" target="488" edge="1">
                    <mxGeometry width="50" height="50" relative="1" as="geometry">
                        <mxPoint x="430" y="60" as="sourcePoint"/>
                        <mxPoint x="480" y="10" as="targetPoint"/>
                    </mxGeometry>
                </mxCell>
                <mxCell id="462" value="" style="group" parent="457" vertex="1" connectable="0">
                    <mxGeometry x="120" y="190" width="80" height="60" as="geometry"/>
                </mxCell>
                <mxCell id="463" value="demand_g" style="rounded=1;whiteSpace=wrap;html=1;container=0;" parent="462" vertex="1">
                    <mxGeometry y="30" width="80" height="30" as="geometry"/>
                </mxCell>
                <mxCell id="464" value="flow_d" style="rounded=0;whiteSpace=wrap;html=1;fillColor=#e1d5e7;strokeColor=#9673a6;container=0;fontColor=#000000;" parent="462" vertex="1">
                    <mxGeometry x="15" width="50" height="30" as="geometry"/>
                </mxCell>
                <mxCell id="465" value="" style="group" parent="457" vertex="1" connectable="0">
                    <mxGeometry y="110" width="80" height="60" as="geometry"/>
                </mxCell>
                <mxCell id="466" value="prod_g" style="rounded=1;whiteSpace=wrap;html=1;container=0;" parent="465" vertex="1">
                    <mxGeometry y="30" width="80" height="30" as="geometry"/>
                </mxCell>
                <mxCell id="467" value="flow_p" style="rounded=0;whiteSpace=wrap;html=1;fillColor=#e1d5e7;strokeColor=#9673a6;container=0;fontColor=#000000;" parent="465" vertex="1">
                    <mxGeometry x="15" width="50" height="30" as="geometry"/>
                </mxCell>
                <mxCell id="468" value="" style="endArrow=classic;startArrow=none;html=1;fontSize=24;exitX=1;exitY=0.5;exitDx=0;exitDy=0;entryX=0;entryY=0.5;entryDx=0;entryDy=0;startFill=0;" parent="457" source="467" target="460" edge="1">
                    <mxGeometry width="50" height="50" relative="1" as="geometry">
                        <mxPoint x="195" y="135" as="sourcePoint"/>
                        <mxPoint x="350" y="175" as="targetPoint"/>
                    </mxGeometry>
                </mxCell>
                <mxCell id="469" value="" style="endArrow=classic;startArrow=none;html=1;fontSize=24;exitX=0.5;exitY=0;exitDx=0;exitDy=0;entryX=0.5;entryY=1;entryDx=0;entryDy=0;startFill=0;" parent="457" source="464" target="460" edge="1">
                    <mxGeometry width="50" height="50" relative="1" as="geometry">
                        <mxPoint x="90" y="200" as="sourcePoint"/>
                        <mxPoint x="170" y="150" as="targetPoint"/>
                    </mxGeometry>
                </mxCell>
                <mxCell id="470" value="" style="endArrow=classic;startArrow=none;html=1;fontSize=24;exitX=0;exitY=0.5;exitDx=0;exitDy=0;entryX=1;entryY=0.5;entryDx=0;entryDy=0;startFill=0;" parent="457" source="481" target="478" edge="1">
                    <mxGeometry width="50" height="50" relative="1" as="geometry">
                        <mxPoint x="100" y="240" as="sourcePoint"/>
                        <mxPoint x="170" y="150" as="targetPoint"/>
                    </mxGeometry>
                </mxCell>
                <mxCell id="471" value="" style="endArrow=classic;startArrow=none;html=1;fontSize=24;exitX=0;exitY=0.5;exitDx=0;exitDy=0;entryX=1;entryY=0.5;entryDx=0;entryDy=0;startFill=0;" parent="457" source="474" target="484" edge="1">
                    <mxGeometry width="50" height="50" relative="1" as="geometry">
                        <mxPoint x="570" y="200" as="sourcePoint"/>
                        <mxPoint x="640" y="150" as="targetPoint"/>
                    </mxGeometry>
                </mxCell>
                <mxCell id="472" value="" style="group" parent="457" vertex="1" connectable="0">
                    <mxGeometry x="680" y="240" width="80" height="60" as="geometry"/>
                </mxCell>
                <mxCell id="473" value="prod_e" style="rounded=1;whiteSpace=wrap;html=1;container=0;" parent="472" vertex="1">
                    <mxGeometry y="30" width="80" height="30" as="geometry"/>
                </mxCell>
                <mxCell id="474" value="&lt;span style=&quot;color: rgb(0, 0, 0);&quot;&gt;flow_p&lt;/span&gt;" style="rounded=0;whiteSpace=wrap;html=1;fillColor=#dae8fc;strokeColor=#6c8ebf;container=0;" parent="472" vertex="1">
                    <mxGeometry x="15" width="50" height="30" as="geometry"/>
                </mxCell>
                <mxCell id="475" value="" style="endArrow=classic;startArrow=none;html=1;fontSize=24;exitX=1;exitY=0.5;exitDx=0;exitDy=0;entryX=0;entryY=0.5;entryDx=0;entryDy=0;startFill=0;" parent="457" source="495" target="484" edge="1">
                    <mxGeometry width="50" height="50" relative="1" as="geometry">
                        <mxPoint x="440" y="275" as="sourcePoint"/>
                        <mxPoint x="360" y="115.5" as="targetPoint"/>
                    </mxGeometry>
                </mxCell>
                <mxCell id="476" value="" style="group" parent="457" vertex="1" connectable="0">
                    <mxGeometry x="530" y="10" width="80" height="110" as="geometry"/>
                </mxCell>
                <mxCell id="477" value="e_1" style="ellipse;whiteSpace=wrap;html=1;aspect=fixed;fillColor=#dae8fc;strokeColor=#6c8ebf;fontColor=#000000;" parent="476" vertex="1">
                    <mxGeometry width="80" height="80" as="geometry"/>
                </mxCell>
                <mxCell id="478" value="flow_n" style="rounded=0;whiteSpace=wrap;html=1;fillColor=#dae8fc;strokeColor=#6c8ebf;fontColor=#000000;" parent="476" vertex="1">
                    <mxGeometry x="15" y="80" width="50" height="30" as="geometry"/>
                </mxCell>
                <mxCell id="479" value="" style="group" parent="457" vertex="1" connectable="0">
                    <mxGeometry x="660" y="90" width="80" height="60" as="geometry"/>
                </mxCell>
                <mxCell id="480" value="demand_e" style="rounded=1;whiteSpace=wrap;html=1;container=0;" parent="479" vertex="1">
                    <mxGeometry y="30" width="80" height="30" as="geometry"/>
                </mxCell>
                <mxCell id="481" value="flow_d" style="rounded=0;whiteSpace=wrap;html=1;fillColor=#dae8fc;strokeColor=#6c8ebf;container=0;fontColor=#000000;" parent="479" vertex="1">
                    <mxGeometry x="15" width="50" height="30" as="geometry"/>
                </mxCell>
                <mxCell id="482" value="" style="group" parent="457" vertex="1" connectable="0">
                    <mxGeometry x="530" y="180" width="80" height="110" as="geometry"/>
                </mxCell>
                <mxCell id="483" value="e_2" style="ellipse;whiteSpace=wrap;html=1;aspect=fixed;fillColor=#dae8fc;strokeColor=#6c8ebf;fontColor=#000000;" parent="482" vertex="1">
                    <mxGeometry width="80" height="80" as="geometry"/>
                </mxCell>
                <mxCell id="484" value="flow_n" style="rounded=0;whiteSpace=wrap;html=1;fillColor=#dae8fc;strokeColor=#6c8ebf;fontColor=#000000;" parent="482" vertex="1">
                    <mxGeometry x="15" y="80" width="50" height="30" as="geometry"/>
                </mxCell>
                <mxCell id="485" value="" style="group" parent="457" vertex="1" connectable="0">
                    <mxGeometry x="250" y="29" width="180" height="211" as="geometry"/>
                </mxCell>
                <mxCell id="486" value="electrolyzer_1" style="ellipse;whiteSpace=wrap;html=1;container=0;" parent="485" vertex="1">
                    <mxGeometry width="120" height="80" as="geometry"/>
                </mxCell>
                <mxCell id="487" value="" style="group;fillColor=#f8cecc;strokeColor=#b85450;container=0;" parent="485" vertex="1" connectable="0">
                    <mxGeometry x="10" y="80.5" width="100" height="30" as="geometry"/>
                </mxCell>
                <mxCell id="488" value="flow_out" style="rounded=0;whiteSpace=wrap;html=1;fillColor=#e1d5e7;strokeColor=#9673a6;container=0;fontColor=#000000;" parent="485" vertex="1">
                    <mxGeometry x="10" y="80.5" width="50" height="30" as="geometry"/>
                </mxCell>
                <mxCell id="489" value="flow_in" style="rounded=0;whiteSpace=wrap;html=1;fillColor=#dae8fc;strokeColor=#6c8ebf;container=0;fontColor=#000000;" parent="485" vertex="1">
                    <mxGeometry x="60" y="80.5" width="50" height="30" as="geometry"/>
                </mxCell>
                <mxCell id="490" value="" style="group" parent="457" vertex="1" connectable="0">
                    <mxGeometry x="380" y="90" width="150" height="130.5" as="geometry"/>
                </mxCell>
                <mxCell id="491" value="consumption_electrolyzer" style="ellipse;whiteSpace=wrap;html=1;container=0;" parent="490" vertex="1">
                    <mxGeometry x="-15" width="150" height="80" as="geometry"/>
                </mxCell>
                <mxCell id="492" value="" style="group;fillColor=#f8cecc;strokeColor=#b85450;container=0;" parent="490" vertex="1" connectable="0">
                    <mxGeometry x="10" y="80.5" width="100" height="30" as="geometry"/>
                </mxCell>
                <mxCell id="493" value="flow_out" style="rounded=0;whiteSpace=wrap;html=1;fillColor=#e1d5e7;strokeColor=#9673a6;container=0;fontColor=#000000;" parent="490" vertex="1">
                    <mxGeometry x="10" y="80.5" width="50" height="30" as="geometry"/>
                </mxCell>
                <mxCell id="507" value="" style="edgeStyle=none;html=1;fontColor=#000000;startArrow=none;startFill=0;endArrow=none;endFill=0;" parent="490" source="494" target="491" edge="1">
                    <mxGeometry relative="1" as="geometry"/>
                </mxCell>
                <mxCell id="494" value="flow_in_1" style="rounded=0;whiteSpace=wrap;html=1;fillColor=#dae8fc;strokeColor=#6c8ebf;container=0;fontColor=#000000;" parent="490" vertex="1">
                    <mxGeometry x="60" y="80.5" width="50" height="30" as="geometry"/>
                </mxCell>
                <mxCell id="495" value="flow_in_2" style="rounded=0;whiteSpace=wrap;html=1;fillColor=#dae8fc;strokeColor=#6c8ebf;container=0;fontColor=#000000;" parent="490" vertex="1">
                    <mxGeometry x="60" y="110.5" width="50" height="30" as="geometry"/>
                </mxCell>
                <mxCell id="496" value="" style="endArrow=classic;startArrow=none;html=1;fontSize=24;exitX=1;exitY=0.5;exitDx=0;exitDy=0;entryX=0;entryY=0.5;entryDx=0;entryDy=0;startFill=0;" parent="457" source="494" target="478" edge="1">
                    <mxGeometry width="50" height="50" relative="1" as="geometry">
                        <mxPoint x="500" y="225.5" as="sourcePoint"/>
                        <mxPoint x="555" y="285" as="targetPoint"/>
                    </mxGeometry>
                </mxCell>
                <mxCell id="497" value="" style="endArrow=none;startArrow=classic;html=1;fontSize=24;exitX=0.75;exitY=1;exitDx=0;exitDy=0;entryX=0;entryY=0.5;entryDx=0;entryDy=0;startFill=1;endFill=0;" parent="457" source="489" target="493" edge="1">
                    <mxGeometry width="50" height="50" relative="1" as="geometry">
                        <mxPoint x="500" y="195.5" as="sourcePoint"/>
                        <mxPoint x="555" y="115" as="targetPoint"/>
                    </mxGeometry>
                </mxCell>
                <mxCell id="498" value="File &quot;network.txt&quot;" style="swimlane;fontStyle=0;childLayout=stackLayout;horizontal=1;startSize=30;horizontalStack=0;resizeParent=1;resizeParentMax=0;resizeLast=0;collapsible=1;marginBottom=0;whiteSpace=wrap;html=1;fillColor=#CCCCFF;" parent="WIyWlLk6GJQsqaUBKTNV-1" vertex="1">
                    <mxGeometry x="1051" y="1769" width="320" height="210" as="geometry"/>
                </mxCell>
                <mxCell id="499" value="electrolyzer_1 : Converter" style="text;strokeColor=none;fillColor=none;align=left;verticalAlign=middle;spacingLeft=4;spacingRight=4;overflow=hidden;points=[[0,0.5],[1,0.5]];portConstraint=eastwest;rotatable=0;whiteSpace=wrap;html=1;" parent="498" vertex="1">
                    <mxGeometry y="30" width="320" height="30" as="geometry"/>
                </mxCell>
                <mxCell id="500" value="&lt;span style=&quot;text-align: center;&quot;&gt;consumption_electrolyzer : Decompose1FlowInto2Flow&lt;/span&gt;" style="text;strokeColor=none;fillColor=none;align=left;verticalAlign=middle;spacingLeft=4;spacingRight=4;overflow=hidden;points=[[0,0.5],[1,0.5]];portConstraint=eastwest;rotatable=0;whiteSpace=wrap;html=1;" parent="498" vertex="1">
                    <mxGeometry y="60" width="320" height="30" as="geometry"/>
                </mxCell>
                <mxCell id="501" value="" style="endArrow=none;dashed=1;html=1;rounded=0;exitX=0;exitY=0.5;exitDx=0;exitDy=0;entryX=1;entryY=0.5;entryDx=0;entryDy=0;" parent="498" edge="1">
                    <mxGeometry width="50" height="50" relative="1" as="geometry">
                        <mxPoint y="89.99999999999989" as="sourcePoint"/>
                        <mxPoint x="310" y="89.99999999999989" as="targetPoint"/>
                    </mxGeometry>
                </mxCell>
                <mxCell id="502" value="e_1.flow_n&amp;nbsp;&lt;span style=&quot;text-align: center;&quot;&gt;consumption_electrolyzer&lt;/span&gt;.flow_in_1" style="text;strokeColor=none;fillColor=none;align=left;verticalAlign=middle;spacingLeft=4;spacingRight=4;overflow=hidden;points=[[0,0.5],[1,0.5]];portConstraint=eastwest;rotatable=0;whiteSpace=wrap;html=1;" parent="498" vertex="1">
                    <mxGeometry y="90" width="320" height="30" as="geometry"/>
                </mxCell>
                <mxCell id="503" value="e_2.flow_n&amp;nbsp;&lt;span style=&quot;text-align: center;&quot;&gt;consumption_electrolyzer&lt;/span&gt;.flow_in_2" style="text;strokeColor=none;fillColor=none;align=left;verticalAlign=middle;spacingLeft=4;spacingRight=4;overflow=hidden;points=[[0,0.5],[1,0.5]];portConstraint=eastwest;rotatable=0;whiteSpace=wrap;html=1;" parent="498" vertex="1">
                    <mxGeometry y="120" width="320" height="30" as="geometry"/>
                </mxCell>
                <mxCell id="504" value="&lt;span style=&quot;text-align: center;&quot;&gt;consumption_electrolyzer&lt;/span&gt;.flow_out electrolyzer_1.flow_in" style="text;strokeColor=none;fillColor=none;align=left;verticalAlign=middle;spacingLeft=4;spacingRight=4;overflow=hidden;points=[[0,0.5],[1,0.5]];portConstraint=eastwest;rotatable=0;whiteSpace=wrap;html=1;" parent="498" vertex="1">
                    <mxGeometry y="150" width="320" height="30" as="geometry"/>
                </mxCell>
                <mxCell id="505" value="g.flow_n electrolyzer_1.flow_out" style="text;strokeColor=none;fillColor=none;align=left;verticalAlign=middle;spacingLeft=4;spacingRight=4;overflow=hidden;points=[[0,0.5],[1,0.5]];portConstraint=eastwest;rotatable=0;whiteSpace=wrap;html=1;" parent="498" vertex="1">
                    <mxGeometry y="180" width="320" height="30" as="geometry"/>
                </mxCell>
                <mxCell id="508" value="&lt;font style=&quot;&quot;&gt;&lt;b&gt;&lt;font style=&quot;font-size: 24px;&quot;&gt;Data visualization&lt;/font&gt;&lt;/b&gt;&lt;b&gt;&lt;font style=&quot;font-size: 24px;&quot;&gt;&amp;nbsp;option 4&lt;/font&gt;&lt;/b&gt;&lt;b style=&quot;&quot;&gt;&lt;br&gt;&lt;/b&gt;&lt;/font&gt;" style="text;html=1;strokeColor=none;fillColor=none;align=center;verticalAlign=middle;whiteSpace=wrap;rounded=0;" parent="WIyWlLk6GJQsqaUBKTNV-1" vertex="1">
                    <mxGeometry x="1812" y="1179" width="430" height="120" as="geometry"/>
                </mxCell>
                <mxCell id="567" value="" style="group" parent="WIyWlLk6GJQsqaUBKTNV-1" vertex="1" connectable="0">
                    <mxGeometry x="1662" y="1280" width="810" height="320" as="geometry"/>
                </mxCell>
                <mxCell id="568" value="" style="group;fontColor=#000000;" parent="567" vertex="1" connectable="0">
                    <mxGeometry x="120" y="30" width="80" height="110" as="geometry"/>
                </mxCell>
                <mxCell id="569" value="g" style="ellipse;whiteSpace=wrap;html=1;aspect=fixed;fillColor=#e1d5e7;strokeColor=#9673a6;fontColor=#000000;" parent="568" vertex="1">
                    <mxGeometry width="80" height="80" as="geometry"/>
                </mxCell>
                <mxCell id="570" value="flow_n" style="rounded=0;whiteSpace=wrap;html=1;fillColor=#e1d5e7;strokeColor=#9673a6;fontColor=#000000;" parent="568" vertex="1">
                    <mxGeometry x="15" y="80" width="50" height="30" as="geometry"/>
                </mxCell>
                <mxCell id="571" value="" style="endArrow=none;startArrow=classic;html=1;fontSize=24;exitX=1;exitY=0.5;exitDx=0;exitDy=0;entryX=0;entryY=0.5;entryDx=0;entryDy=0;startFill=1;endFill=0;" parent="567" source="570" target="601" edge="1">
                    <mxGeometry width="50" height="50" relative="1" as="geometry">
                        <mxPoint x="430" y="60" as="sourcePoint"/>
                        <mxPoint x="480" y="10" as="targetPoint"/>
                    </mxGeometry>
                </mxCell>
                <mxCell id="572" value="" style="endArrow=none;startArrow=classic;html=1;fontSize=24;exitX=1;exitY=0.5;exitDx=0;exitDy=0;entryX=0;entryY=0.5;entryDx=0;entryDy=0;startFill=1;endFill=0;" parent="567" source="602" target="590" edge="1">
                    <mxGeometry width="50" height="50" relative="1" as="geometry">
                        <mxPoint x="580" y="179.75" as="sourcePoint"/>
                        <mxPoint x="735" y="230.75" as="targetPoint"/>
                    </mxGeometry>
                </mxCell>
                <mxCell id="573" value="" style="group" parent="567" vertex="1" connectable="0">
                    <mxGeometry x="120" y="190" width="80" height="60" as="geometry"/>
                </mxCell>
                <mxCell id="574" value="demand_g" style="rounded=1;whiteSpace=wrap;html=1;container=0;" parent="573" vertex="1">
                    <mxGeometry y="30" width="80" height="30" as="geometry"/>
                </mxCell>
                <mxCell id="575" value="flow_d" style="rounded=0;whiteSpace=wrap;html=1;fillColor=#e1d5e7;strokeColor=#9673a6;container=0;fontColor=#000000;" parent="573" vertex="1">
                    <mxGeometry x="15" width="50" height="30" as="geometry"/>
                </mxCell>
                <mxCell id="576" value="" style="group" parent="567" vertex="1" connectable="0">
                    <mxGeometry y="110" width="80" height="60" as="geometry"/>
                </mxCell>
                <mxCell id="577" value="prod_g" style="rounded=1;whiteSpace=wrap;html=1;container=0;" parent="576" vertex="1">
                    <mxGeometry y="30" width="80" height="30" as="geometry"/>
                </mxCell>
                <mxCell id="578" value="flow_p" style="rounded=0;whiteSpace=wrap;html=1;fillColor=#e1d5e7;strokeColor=#9673a6;container=0;fontColor=#000000;" parent="576" vertex="1">
                    <mxGeometry x="15" width="50" height="30" as="geometry"/>
                </mxCell>
                <mxCell id="579" value="" style="endArrow=classic;startArrow=none;html=1;fontSize=24;exitX=1;exitY=0.5;exitDx=0;exitDy=0;entryX=0;entryY=0.5;entryDx=0;entryDy=0;startFill=0;" parent="567" source="578" target="570" edge="1">
                    <mxGeometry width="50" height="50" relative="1" as="geometry">
                        <mxPoint x="195" y="135" as="sourcePoint"/>
                        <mxPoint x="350" y="175" as="targetPoint"/>
                    </mxGeometry>
                </mxCell>
                <mxCell id="580" value="" style="endArrow=classic;startArrow=none;html=1;fontSize=24;exitX=0.5;exitY=0;exitDx=0;exitDy=0;entryX=0.5;entryY=1;entryDx=0;entryDy=0;startFill=0;" parent="567" source="575" target="570" edge="1">
                    <mxGeometry width="50" height="50" relative="1" as="geometry">
                        <mxPoint x="90" y="200" as="sourcePoint"/>
                        <mxPoint x="170" y="150" as="targetPoint"/>
                    </mxGeometry>
                </mxCell>
                <mxCell id="581" value="" style="endArrow=classic;startArrow=none;html=1;fontSize=24;exitX=0;exitY=0.5;exitDx=0;exitDy=0;entryX=1;entryY=0.5;entryDx=0;entryDy=0;startFill=0;" parent="567" source="593" target="589" edge="1">
                    <mxGeometry width="50" height="50" relative="1" as="geometry">
                        <mxPoint x="100" y="240" as="sourcePoint"/>
                        <mxPoint x="170" y="150" as="targetPoint"/>
                    </mxGeometry>
                </mxCell>
                <mxCell id="582" value="" style="endArrow=classic;startArrow=none;html=1;fontSize=24;exitX=0;exitY=0.5;exitDx=0;exitDy=0;entryX=1;entryY=0.5;entryDx=0;entryDy=0;startFill=0;" parent="567" source="585" target="596" edge="1">
                    <mxGeometry width="50" height="50" relative="1" as="geometry">
                        <mxPoint x="570" y="200" as="sourcePoint"/>
                        <mxPoint x="640" y="150" as="targetPoint"/>
                    </mxGeometry>
                </mxCell>
                <mxCell id="583" value="" style="group" parent="567" vertex="1" connectable="0">
                    <mxGeometry x="680" y="240" width="80" height="60" as="geometry"/>
                </mxCell>
                <mxCell id="584" value="prod_e" style="rounded=1;whiteSpace=wrap;html=1;container=0;" parent="583" vertex="1">
                    <mxGeometry y="30" width="80" height="30" as="geometry"/>
                </mxCell>
                <mxCell id="585" value="&lt;span style=&quot;color: rgb(0, 0, 0);&quot;&gt;flow_p&lt;/span&gt;" style="rounded=0;whiteSpace=wrap;html=1;fillColor=#dae8fc;strokeColor=#6c8ebf;container=0;" parent="583" vertex="1">
                    <mxGeometry x="15" width="50" height="30" as="geometry"/>
                </mxCell>
                <mxCell id="586" value="" style="endArrow=none;startArrow=classic;html=1;fontSize=24;exitX=1;exitY=0.75;exitDx=0;exitDy=0;entryX=0;entryY=0.5;entryDx=0;entryDy=0;startFill=1;endFill=0;" parent="567" source="602" target="597" edge="1">
                    <mxGeometry width="50" height="50" relative="1" as="geometry">
                        <mxPoint x="420" y="205" as="sourcePoint"/>
                        <mxPoint x="360" y="115.5" as="targetPoint"/>
                    </mxGeometry>
                </mxCell>
                <mxCell id="587" value="" style="group" parent="567" vertex="1" connectable="0">
                    <mxGeometry x="530" y="10" width="80" height="110" as="geometry"/>
                </mxCell>
                <mxCell id="588" value="e_1" style="ellipse;whiteSpace=wrap;html=1;aspect=fixed;fillColor=#dae8fc;strokeColor=#6c8ebf;fontColor=#000000;" parent="587" vertex="1">
                    <mxGeometry width="80" height="80" as="geometry"/>
                </mxCell>
                <mxCell id="589" value="flow_n" style="rounded=0;whiteSpace=wrap;html=1;fillColor=#dae8fc;strokeColor=#6c8ebf;fontColor=#000000;" parent="587" vertex="1">
                    <mxGeometry x="40" y="80" width="50" height="30" as="geometry"/>
                </mxCell>
                <mxCell id="590" value="flow_e" style="rounded=0;whiteSpace=wrap;html=1;fillColor=#dae8fc;strokeColor=#6c8ebf;fontColor=#000000;" parent="587" vertex="1">
                    <mxGeometry x="-10" y="80" width="50" height="30" as="geometry"/>
                </mxCell>
                <mxCell id="591" value="" style="group" parent="567" vertex="1" connectable="0">
                    <mxGeometry x="660" y="90" width="80" height="60" as="geometry"/>
                </mxCell>
                <mxCell id="592" value="demand_e" style="rounded=1;whiteSpace=wrap;html=1;container=0;" parent="591" vertex="1">
                    <mxGeometry y="30" width="80" height="30" as="geometry"/>
                </mxCell>
                <mxCell id="593" value="flow_d" style="rounded=0;whiteSpace=wrap;html=1;fillColor=#dae8fc;strokeColor=#6c8ebf;container=0;fontColor=#000000;" parent="591" vertex="1">
                    <mxGeometry x="15" width="50" height="30" as="geometry"/>
                </mxCell>
                <mxCell id="594" value="" style="group" parent="567" vertex="1" connectable="0">
                    <mxGeometry x="530" y="180" width="80" height="110" as="geometry"/>
                </mxCell>
                <mxCell id="595" value="e_2" style="ellipse;whiteSpace=wrap;html=1;aspect=fixed;fillColor=#dae8fc;strokeColor=#6c8ebf;fontColor=#000000;" parent="594" vertex="1">
                    <mxGeometry width="80" height="80" as="geometry"/>
                </mxCell>
                <mxCell id="596" value="flow_n" style="rounded=0;whiteSpace=wrap;html=1;fillColor=#dae8fc;strokeColor=#6c8ebf;fontColor=#000000;" parent="594" vertex="1">
                    <mxGeometry x="40" y="80" width="50" height="30" as="geometry"/>
                </mxCell>
                <mxCell id="597" value="flow_e" style="rounded=0;whiteSpace=wrap;html=1;fillColor=#dae8fc;strokeColor=#6c8ebf;fontColor=#000000;" parent="594" vertex="1">
                    <mxGeometry x="-10" y="80" width="50" height="30" as="geometry"/>
                </mxCell>
                <mxCell id="598" value="" style="group" parent="567" vertex="1" connectable="0">
                    <mxGeometry x="310" y="79.5" width="120" height="130.5" as="geometry"/>
                </mxCell>
                <mxCell id="599" value="electrolyzer_1" style="ellipse;whiteSpace=wrap;html=1;container=0;" parent="598" vertex="1">
                    <mxGeometry width="120" height="80" as="geometry"/>
                </mxCell>
                <mxCell id="600" value="" style="group;fillColor=#f8cecc;strokeColor=#b85450;container=0;" parent="598" vertex="1" connectable="0">
                    <mxGeometry x="10" y="80.5" width="100" height="30" as="geometry"/>
                </mxCell>
                <mxCell id="601" value="flow_out" style="rounded=0;whiteSpace=wrap;html=1;fillColor=#e1d5e7;strokeColor=#9673a6;container=0;fontColor=#000000;" parent="598" vertex="1">
                    <mxGeometry x="10" y="80.5" width="50" height="30" as="geometry"/>
                </mxCell>
                <mxCell id="602" value="flow_in" style="rounded=0;whiteSpace=wrap;html=1;fillColor=#dae8fc;strokeColor=#6c8ebf;container=0;fontColor=#000000;" parent="598" vertex="1">
                    <mxGeometry x="60" y="80.5" width="50" height="30" as="geometry"/>
                </mxCell>
                <mxCell id="603" value="&lt;span style=&quot;color: rgb(240, 240, 240);&quot;&gt;File &quot;network.txt&quot;&lt;/span&gt;" style="swimlane;fontStyle=0;childLayout=stackLayout;horizontal=1;startSize=30;horizontalStack=0;resizeParent=1;resizeParentMax=0;resizeLast=0;collapsible=1;marginBottom=0;whiteSpace=wrap;html=1;fontColor=#000000;fillColor=#CCCCFF;" parent="WIyWlLk6GJQsqaUBKTNV-1" vertex="1">
                    <mxGeometry x="1885" y="1650" width="320" height="150" as="geometry"/>
                </mxCell>
                <mxCell id="604" value="electrolyzer_1 : Converter" style="text;strokeColor=none;fillColor=none;align=left;verticalAlign=middle;spacingLeft=4;spacingRight=4;overflow=hidden;points=[[0,0.5],[1,0.5]];portConstraint=eastwest;rotatable=0;whiteSpace=wrap;html=1;" parent="603" vertex="1">
                    <mxGeometry y="30" width="320" height="30" as="geometry"/>
                </mxCell>
                <mxCell id="605" value="" style="endArrow=none;dashed=1;html=1;rounded=0;exitX=0;exitY=0.5;exitDx=0;exitDy=0;entryX=1;entryY=0.5;entryDx=0;entryDy=0;" parent="603" edge="1">
                    <mxGeometry width="50" height="50" relative="1" as="geometry">
                        <mxPoint x="10" y="59.999999999999886" as="sourcePoint"/>
                        <mxPoint x="320" y="59.999999999999886" as="targetPoint"/>
                    </mxGeometry>
                </mxCell>
                <mxCell id="606" value="e_1.flow_e electrolyzer_1.flow_in" style="text;strokeColor=none;fillColor=none;align=left;verticalAlign=middle;spacingLeft=4;spacingRight=4;overflow=hidden;points=[[0,0.5],[1,0.5]];portConstraint=eastwest;rotatable=0;whiteSpace=wrap;html=1;" parent="603" vertex="1">
                    <mxGeometry y="60" width="320" height="30" as="geometry"/>
                </mxCell>
                <mxCell id="607" value="e_2.flow_e electrolyzer_1.flow_in" style="text;strokeColor=none;fillColor=none;align=left;verticalAlign=middle;spacingLeft=4;spacingRight=4;overflow=hidden;points=[[0,0.5],[1,0.5]];portConstraint=eastwest;rotatable=0;whiteSpace=wrap;html=1;" parent="603" vertex="1">
                    <mxGeometry y="90" width="320" height="30" as="geometry"/>
                </mxCell>
                <mxCell id="608" value="g.flow_n electrolyzer_1.flow_out" style="text;strokeColor=none;fillColor=none;align=left;verticalAlign=middle;spacingLeft=4;spacingRight=4;overflow=hidden;points=[[0,0.5],[1,0.5]];portConstraint=eastwest;rotatable=0;whiteSpace=wrap;html=1;" parent="603" vertex="1">
                    <mxGeometry y="120" width="320" height="30" as="geometry"/>
                </mxCell>
                <mxCell id="653" value="&lt;i&gt;We seek to represent an electrolyzer supplied by two (and potentially n) electric nodes and fournishing a gaz node. The electrical consumption of the electrolyzer in the different nodes is upper bounded by the electrolyzer's capacity. There could be additional constraints on the repartition of the consumption into the different nodes.&amp;nbsp;&amp;nbsp;&lt;/i&gt;" style="text;html=1;strokeColor=#FFCCCC;fillColor=none;align=left;verticalAlign=middle;whiteSpace=wrap;rounded=0;dashed=1;dashPattern=1 1;strokeWidth=2;" parent="WIyWlLk6GJQsqaUBKTNV-1" vertex="1">
                    <mxGeometry x="104" y="-584" width="619" height="60" as="geometry"/>
                </mxCell>
                <mxCell id="655" value="&lt;i&gt;This option is generalizable to n inputs.&amp;nbsp;&lt;br&gt;Disadvatange : demultiplication of instances&amp;nbsp;&lt;br&gt;&lt;/i&gt;" style="text;html=1;strokeColor=#FFCCCC;fillColor=none;align=left;verticalAlign=middle;whiteSpace=wrap;rounded=0;dashed=1;dashPattern=1 1;strokeWidth=2;" parent="WIyWlLk6GJQsqaUBKTNV-1" vertex="1">
                    <mxGeometry x="950" y="970" width="619" height="60" as="geometry"/>
                </mxCell>
                <mxCell id="656" value="&lt;i&gt;This option is generalizable to any large number of inputs (up to a certain limit) using empty ports.&amp;nbsp;&lt;br&gt;Disadvatange : coupling of variables inside the converter model.&lt;br&gt;The coupling costraint could be implemented by a RepartitionKey model or inside Converter model.&lt;br&gt;&lt;/i&gt;" style="text;html=1;strokeColor=#FFCCCC;fillColor=none;align=left;verticalAlign=middle;whiteSpace=wrap;rounded=0;dashed=1;dashPattern=1 1;strokeWidth=2;" parent="WIyWlLk6GJQsqaUBKTNV-1" vertex="1">
                    <mxGeometry x="1758" y="970" width="619" height="60" as="geometry"/>
                </mxCell>
                <mxCell id="657" value="&lt;i&gt;This option is generalizable to any large number of inputs (up to a certain limit) using empty ports.&amp;nbsp;&lt;br&gt;Disadvatange : the object &quot;consumption_electrolyzer&quot; isn't a physical object&lt;/i&gt;&lt;i style=&quot;border-color: var(--border-color);&quot;&gt;&lt;br style=&quot;border-color: var(--border-color);&quot;&gt;The coupling costraint could be implemented by a RepartitionKey model or inside Decompose model.&lt;/i&gt;&lt;i&gt;&lt;br&gt;&lt;/i&gt;" style="text;html=1;strokeColor=#FFCCCC;fillColor=none;align=left;verticalAlign=middle;whiteSpace=wrap;rounded=0;dashed=1;dashPattern=1 1;strokeWidth=2;" parent="WIyWlLk6GJQsqaUBKTNV-1" vertex="1">
                    <mxGeometry x="930" y="2080" width="619" height="60" as="geometry"/>
                </mxCell>
                <mxCell id="658" value="&lt;i&gt;This option is generalizable to any large number of inputs (up to a certain limit) using empty ports.&amp;nbsp;&lt;br&gt;Disadvatange : demultiplication of variables and ports in the model &quot;Node&quot;&lt;/i&gt;&lt;i style=&quot;border-color: var(--border-color);&quot;&gt;&lt;br style=&quot;border-color: var(--border-color);&quot;&gt;The coupling costraint could be implemented by a RepartitionKey model.&lt;/i&gt;&lt;i&gt;&lt;br&gt;&lt;/i&gt;" style="text;html=1;strokeColor=#FFCCCC;fillColor=none;align=left;verticalAlign=middle;whiteSpace=wrap;rounded=0;dashed=1;dashPattern=1 1;strokeWidth=2;" parent="WIyWlLk6GJQsqaUBKTNV-1" vertex="1">
                    <mxGeometry x="1735.5" y="2080" width="619" height="60" as="geometry"/>
                </mxCell>
                <mxCell id="668" value="min &lt;span style=&quot;white-space: pre;&quot;&gt;&#9;&lt;/span&gt;production costs&lt;br&gt;s.t.&amp;nbsp; &lt;span style=&quot;white-space: pre;&quot;&gt;&#9;&lt;/span&gt;prod_gas = efficiency * (consumption_elec_1 + consumption_elec_2)&lt;br&gt;&lt;span style=&quot;white-space: pre;&quot;&gt;&#9;&lt;/span&gt;consumption_elec_1 + consumption_elec_2 &amp;lt;= capacity_electrolyzer&lt;br&gt;&lt;span style=&quot;white-space: pre;&quot;&gt;&#9;&lt;/span&gt;balance at each node&lt;br&gt;&lt;span style=&quot;white-space: pre;&quot;&gt;&#9;&lt;/span&gt;production constraints&lt;br&gt;&lt;span style=&quot;white-space: pre;&quot;&gt;&#9;&lt;/span&gt;alpha_1*consumption_elec_1 + alpha_2*consumption_elec_2 = 0 (optionnal)&lt;br&gt;If the electrolyzer has more than 2 inputs, we may want to write more than one coupling constraint.&amp;nbsp;&amp;nbsp;" style="text;html=1;strokeColor=#CCCCFF;fillColor=none;align=left;verticalAlign=middle;whiteSpace=wrap;rounded=0;dashed=1;dashPattern=1 1;strokeWidth=2;" parent="WIyWlLk6GJQsqaUBKTNV-1" vertex="1">
                    <mxGeometry x="270" y="-470" width="540" height="110" as="geometry"/>
                </mxCell>
                <mxCell id="178" value="Decompose1FlowInto2Flow : Model" style="swimlane;fontStyle=0;childLayout=stackLayout;horizontal=1;startSize=30;horizontalStack=0;resizeParent=1;resizeParentMax=0;resizeLast=0;collapsible=1;marginBottom=0;whiteSpace=wrap;html=1;fillColor=#CCFFCC;fontColor=#000000;" parent="WIyWlLk6GJQsqaUBKTNV-1" vertex="1">
                    <mxGeometry x="910" y="-660" width="300" height="210" as="geometry"/>
                </mxCell>
                <mxCell id="179" value="energy_1, energy_2 : Variable" style="text;strokeColor=none;fillColor=none;align=left;verticalAlign=middle;spacingLeft=4;spacingRight=4;overflow=hidden;points=[[0,0.5],[1,0.5]];portConstraint=eastwest;rotatable=0;whiteSpace=wrap;html=1;" parent="178" vertex="1">
                    <mxGeometry y="30" width="300" height="30" as="geometry"/>
                </mxCell>
                <mxCell id="670" value="energy_1, energy_2 &amp;gt;= 0" style="text;strokeColor=none;fillColor=none;align=left;verticalAlign=middle;spacingLeft=4;spacingRight=4;overflow=hidden;points=[[0,0.5],[1,0.5]];portConstraint=eastwest;rotatable=0;whiteSpace=wrap;html=1;" parent="178" vertex="1">
                    <mxGeometry y="60" width="300" height="30" as="geometry"/>
                </mxCell>
                <mxCell id="189" value="flow_in_1, flow_in_2, flow_out : Flow" style="text;strokeColor=none;fillColor=none;align=left;verticalAlign=middle;spacingLeft=4;spacingRight=4;overflow=hidden;points=[[0,0.5],[1,0.5]];portConstraint=eastwest;rotatable=0;whiteSpace=wrap;html=1;" parent="178" vertex="1">
                    <mxGeometry y="90" width="300" height="30" as="geometry"/>
                </mxCell>
                <mxCell id="190" value="flow_in_1 = energy_1" style="text;strokeColor=none;fillColor=none;align=left;verticalAlign=middle;spacingLeft=4;spacingRight=4;overflow=hidden;points=[[0,0.5],[1,0.5]];portConstraint=eastwest;rotatable=0;whiteSpace=wrap;html=1;" parent="178" vertex="1">
                    <mxGeometry y="120" width="300" height="30" as="geometry"/>
                </mxCell>
                <mxCell id="181" value="flow_in_2 = energy_2" style="text;strokeColor=none;fillColor=none;align=left;verticalAlign=middle;spacingLeft=4;spacingRight=4;overflow=hidden;points=[[0,0.5],[1,0.5]];portConstraint=eastwest;rotatable=0;whiteSpace=wrap;html=1;" parent="178" vertex="1">
                    <mxGeometry y="150" width="300" height="30" as="geometry"/>
                </mxCell>
                <mxCell id="191" value="flow_out.f = flow_in_1.f+flow_in_2.f" style="text;strokeColor=none;fillColor=none;align=left;verticalAlign=middle;spacingLeft=4;spacingRight=4;overflow=hidden;points=[[0,0.5],[1,0.5]];portConstraint=eastwest;rotatable=0;whiteSpace=wrap;html=1;" parent="178" vertex="1">
                    <mxGeometry y="180" width="300" height="30" as="geometry"/>
                </mxCell>
                <mxCell id="180" value="" style="endArrow=none;dashed=1;html=1;rounded=0;exitX=0.005;exitY=-0.18;exitDx=0;exitDy=0;entryX=1.013;entryY=-0.127;entryDx=0;entryDy=0;entryPerimeter=0;exitPerimeter=0;" parent="178" source="189" target="189" edge="1">
                    <mxGeometry width="50" height="50" relative="1" as="geometry">
                        <mxPoint x="-10" y="160" as="sourcePoint"/>
                        <mxPoint x="190" y="160" as="targetPoint"/>
                    </mxGeometry>
                </mxCell>
            </root>
        </mxGraphModel>
    </diagram>
</mxfile>